<svg width="20" height="20" viewBox="0 0 20 20" fill="none" xmlns="http://www.w3.org/2000/svg">
<g clip-path="url(#clip0_425_59658)">
<path d="M9.83021 0C7.886 0 5.98542 0.576533 4.36885 1.65669C2.75228 2.73685 1.49231 4.27212 0.748286 6.06836C0.00425943 7.86457 -0.190412 9.84114 0.188889 11.748C0.568191 13.6549 1.50443 15.4065 2.87921 16.7812C4.25399 18.156 6.00557 19.0923 7.91243 19.4716C9.81936 19.8509 11.7959 19.6562 13.5921 18.9121C15.3884 18.1681 16.9236 16.9082 18.0038 15.2916C19.0839 13.6751 19.6604 11.7744 19.6604 9.83021C19.6604 7.22307 18.6248 4.72274 16.7813 2.87921C14.9377 1.03568 12.4374 0 9.83021 0ZM9.83021 18.1481C8.18514 18.1481 6.57694 17.6603 5.20906 16.7463C3.84119 15.8323 2.77507 14.5332 2.14551 13.0134C1.51595 11.4934 1.35123 9.821 1.67217 8.2075C1.99312 6.59398 2.78532 5.11187 3.9486 3.94859C5.11188 2.78532 6.59399 1.99311 8.2075 1.67217C9.821 1.35122 11.4934 1.51594 13.0134 2.14551C14.5332 2.77506 15.8323 3.84119 16.7463 5.20906C17.6603 6.57693 18.1481 8.18507 18.1481 9.83021C18.1481 12.0363 17.2718 14.1519 15.7119 15.7119C14.1519 17.2718 12.0363 18.1481 9.83021 18.1481Z" fill="#171717"/>
<path d="M5.89118 9.63359C5.96148 9.70445 6.04511 9.76073 6.13726 9.79909C6.22941 9.83752 6.32824 9.85723 6.42806 9.85723C6.52788 9.85723 6.62672 9.83752 6.71887 9.79909C6.81101 9.76073 6.89465 9.70445 6.96494 9.63359L8.74196 7.85659C9.07582 7.51788 9.27946 7.07219 9.31689 6.59805C9.35432 6.12393 9.22318 5.6518 8.94661 5.2649C8.66996 4.878 8.26568 4.60118 7.80489 4.48323C7.34418 4.36528 6.85656 4.41377 6.42806 4.62015C5.99891 4.40103 5.50536 4.34325 5.03719 4.45733C4.56903 4.5714 4.15738 4.84975 3.87713 5.24173C3.59688 5.63371 3.46667 6.11327 3.51017 6.59316C3.55368 7.07305 3.76801 7.52138 4.11418 7.85659L5.89118 9.63359ZM5.18038 6.04932C5.22627 6.00128 5.28143 5.96305 5.34251 5.93693C5.4036 5.9108 5.46934 5.89733 5.53578 5.89733C5.60221 5.89733 5.66796 5.9108 5.72905 5.93693C5.79013 5.96305 5.84528 6.00128 5.89118 6.04932C5.96148 6.1202 6.04511 6.17645 6.13726 6.21484C6.22941 6.25323 6.32824 6.273 6.42806 6.273C6.52788 6.273 6.62672 6.25323 6.71887 6.21484C6.81101 6.17645 6.89465 6.1202 6.96494 6.04932C7.01138 6.00223 7.06671 5.96483 7.12772 5.9393C7.18875 5.91377 7.25418 5.90063 7.32032 5.90063C7.38646 5.90063 7.45196 5.91377 7.51296 5.9393C7.57396 5.96483 7.62932 6.00223 7.67575 6.04932C7.72375 6.09521 7.76203 6.15037 7.78818 6.21145C7.81425 6.27254 7.82775 6.33828 7.82775 6.40473C7.82775 6.47116 7.81425 6.5369 7.78818 6.59799C7.76203 6.65908 7.72375 6.71423 7.67575 6.76013L6.42806 8.03052L5.18038 6.8055C5.13234 6.7596 5.09411 6.70445 5.06798 6.64336C5.04186 6.58228 5.02838 6.51653 5.02838 6.45009C5.02838 6.38365 5.04186 6.31791 5.06798 6.25683C5.09411 6.19574 5.13234 6.14058 5.18038 6.09469V6.04932Z" fill="#171717"/>
<path d="M12.6968 9.63383C12.7671 9.70469 12.8508 9.76098 12.9429 9.79933C13.035 9.83776 13.1339 9.85748 13.2337 9.85748C13.3335 9.85748 13.4324 9.83776 13.5245 9.79933C13.6167 9.76098 13.7003 9.70469 13.7706 9.63383L15.5476 7.85683C15.8815 7.51812 16.0851 7.07243 16.1225 6.5983C16.16 6.12417 16.0288 5.65204 15.7523 5.26514C15.4756 4.87825 15.0713 4.60142 14.6105 4.48347C14.1498 4.36552 13.6622 4.41401 13.2337 4.6204C12.8045 4.40128 12.311 4.3435 11.8428 4.45757C11.3747 4.57165 10.963 4.84999 10.6828 5.24198C10.4025 5.63396 10.2723 6.11351 10.3158 6.59341C10.3593 7.0733 10.5737 7.52162 10.9198 7.85683L12.6968 9.63383ZM11.986 6.04956C12.0319 6.00153 12.087 5.96329 12.1482 5.93717C12.2093 5.91104 12.275 5.89758 12.3414 5.89758C12.4078 5.89758 12.4736 5.91104 12.5347 5.93717C12.5958 5.96329 12.6509 6.00153 12.6968 6.04956C12.7671 6.12044 12.8508 6.1767 12.9429 6.21508C13.035 6.25348 13.1339 6.27324 13.2337 6.27324C13.3335 6.27324 13.4324 6.25348 13.5245 6.21508C13.6167 6.1767 13.7003 6.12044 13.7706 6.04956C13.817 6.00247 13.8723 5.96507 13.9333 5.93954C13.9944 5.91401 14.0598 5.90087 14.126 5.90087C14.1921 5.90087 14.2576 5.91401 14.3186 5.93954C14.3796 5.96507 14.435 6.00247 14.4814 6.04956C14.5294 6.09546 14.5677 6.15061 14.5938 6.2117C14.6199 6.27278 14.6334 6.33853 14.6334 6.40497C14.6334 6.47141 14.6199 6.53715 14.5938 6.59823C14.5677 6.65932 14.5294 6.71448 14.4814 6.76037L13.2337 8.03076L11.986 6.80574C11.938 6.75985 11.8998 6.70469 11.8736 6.64361C11.8475 6.58252 11.834 6.51677 11.834 6.45033C11.834 6.3839 11.8475 6.31816 11.8736 6.25707C11.8998 6.19598 11.938 6.14083 11.986 6.09493V6.04956Z" fill="#171717"/>
<path d="M15.1238 10.5864C14.9232 10.5864 14.731 10.6661 14.5891 10.8079C14.4473 10.9497 14.3677 11.1421 14.3677 11.3426C14.3677 13.4296 12.3335 15.1235 9.8306 15.1235C7.32767 15.1235 5.29359 13.4296 5.29359 11.3426C5.29359 11.1421 5.21393 10.9497 5.07211 10.8079C4.93031 10.6661 4.73797 10.5864 4.53742 10.5864C4.33687 10.5864 4.14454 10.6661 4.00273 10.8079C3.86092 10.9497 3.78125 11.1421 3.78125 11.3426C3.78125 14.2614 6.49591 16.6359 9.8306 16.6359C13.1653 16.6359 15.88 14.2614 15.88 11.3426C15.88 11.1421 15.8003 10.9497 15.6585 10.8079C15.5167 10.6661 15.3244 10.5864 15.1238 10.5864Z" fill="#171717"/>
</g>
<defs>
<clipPath id="clip0_425_59658">
<rect width="20" height="20" fill="white"/>
</clipPath>
</defs>
</svg>
