<svg width="166" height="128" viewBox="0 0 166 128" fill="none" xmlns="http://www.w3.org/2000/svg">
<rect width="165.724" height="127.26" transform="translate(0.0458984 0.0834961)" fill="white"/>
<mask id="mask0_281_69730" style="mask-type:luminance" maskUnits="userSpaceOnUse" x="37" y="51" width="16" height="26">
<path fill-rule="evenodd" clip-rule="evenodd" d="M37.3076 51.2014H52.7846V76.603H37.3076V51.2014Z" fill="white"/>
</mask>
<g mask="url(#mask0_281_69730)">
<path fill-rule="evenodd" clip-rule="evenodd" d="M52.7848 69.3844C52.7848 71.2639 52.3379 72.7996 51.4442 73.9903C50.161 75.7323 48.0299 76.603 45.051 76.603C42.072 76.603 39.9409 75.7323 38.6577 73.9903C37.7411 72.7763 37.2832 71.2295 37.2832 69.3501H40.8575C40.8575 70.808 41.2242 71.8138 41.9579 72.3687C42.5766 72.8315 43.6073 73.0627 45.051 73.0627C46.495 73.0627 47.5139 72.8331 48.1101 72.374C48.8434 71.8466 49.21 70.8596 49.21 69.4135C49.21 68.3807 48.8434 67.5889 48.1101 67.0377C47.5139 66.6019 46.2998 66.1088 44.467 65.5576C42.2672 64.8923 40.6975 64.2151 39.7576 63.5264C38.1081 62.3103 37.2832 60.6236 37.2832 58.4655C37.2832 56.5836 37.7411 55.0348 38.6577 53.8182C39.9409 52.0738 42.072 51.2014 45.051 51.2014C48.0299 51.2014 50.161 52.0726 51.4442 53.8141C52.3379 55.0286 52.7848 56.5754 52.7848 58.454H49.21C49.21 56.9973 48.8434 55.991 48.1101 55.4358C47.4914 54.9734 46.4717 54.7422 45.051 54.7422C43.6073 54.7422 42.5766 54.9726 41.9579 55.4325C41.2242 55.9853 40.8575 56.987 40.8575 58.4368C40.8575 59.4041 41.2242 60.1526 41.9579 60.6821C42.5299 61.0966 43.7104 61.568 45.4982 62.0975C47.7431 62.7624 49.3475 63.4613 50.3104 64.1946C51.9598 65.4095 52.7848 67.1392 52.7848 69.3844Z" fill="#1A1919"/>
</g>
<path fill-rule="evenodd" clip-rule="evenodd" d="M55.1904 76.603H58.7648V51.2014H55.1904V76.603Z" fill="#1A1919"/>
<path fill-rule="evenodd" clip-rule="evenodd" d="M75.0572 63.9536V60.3522C75.0572 58.4822 74.7499 57.1319 74.1357 56.3004C73.3615 55.2618 72.0304 54.7422 70.1423 54.7422C68.2531 54.7422 66.9334 55.2618 66.183 56.3004C65.5683 57.1319 65.261 58.4822 65.261 60.3522V63.9536H75.0572ZM78.6667 76.603H75.0572V67.4944H65.261V76.603H61.6523V60.3449C61.6523 54.2495 64.4819 51.2014 70.1423 51.2014C75.8244 51.2014 78.6667 54.2495 78.6667 60.3449V76.603Z" fill="#1A1919"/>
<path fill-rule="evenodd" clip-rule="evenodd" d="M83.9445 62.0365C83.9445 62.4129 83.8549 62.7206 83.6761 62.9596C83.4187 63.3087 82.9915 63.483 82.3945 63.483C81.7975 63.483 81.3707 63.3087 81.1133 62.9596C80.9296 62.7161 80.8379 62.4064 80.8379 62.0295H81.5544C81.5544 62.3217 81.628 62.5234 81.7749 62.6343C81.8989 62.7272 82.1052 62.7734 82.3945 62.7734C82.6838 62.7734 82.8884 62.7276 83.0079 62.6355C83.1548 62.53 83.228 62.3323 83.228 62.0422C83.228 61.8355 83.1548 61.6764 83.0079 61.5659C82.8884 61.4787 82.6449 61.3797 82.2778 61.2696C81.8367 61.1362 81.5221 61.0004 81.3338 60.8625C81.0032 60.619 80.8379 60.2806 80.8379 59.8485C80.8379 59.4712 80.9296 59.161 81.1133 58.9172C81.3707 58.5673 81.7975 58.3926 82.3945 58.3926C82.9915 58.3926 83.4187 58.5673 83.6761 58.9159C83.8549 59.1598 83.9445 59.4696 83.9445 59.846H83.228C83.228 59.5539 83.1548 59.3526 83.0079 59.2412C82.8835 59.1484 82.6793 59.1021 82.3945 59.1021C82.1052 59.1021 81.8989 59.1484 81.7749 59.2404C81.628 59.3513 81.5544 59.5522 81.5544 59.8428C81.5544 60.0363 81.628 60.1865 81.7749 60.2925C81.8895 60.3755 82.126 60.4701 82.4841 60.5765C82.9342 60.7094 83.2562 60.8494 83.4486 60.9963C83.7796 61.2398 83.9445 61.5863 83.9445 62.0365Z" fill="#1A1919"/>
<path fill-rule="evenodd" clip-rule="evenodd" d="M88.3532 61.6575C88.3532 62.8745 87.7836 63.483 86.6448 63.483C85.5105 63.483 84.9434 62.8745 84.9434 61.6575V58.3926H85.6599V61.6629C85.6599 62.0352 85.7216 62.3045 85.8456 62.4698C85.9974 62.6724 86.2634 62.7734 86.6448 62.7734C87.0258 62.7734 87.2946 62.6724 87.4509 62.4698C87.5745 62.2996 87.6367 62.0307 87.6367 61.6629V58.3926H88.3532V61.6575Z" fill="#1A1919"/>
<path fill-rule="evenodd" clip-rule="evenodd" d="M95.5514 63.483H94.8349V60.225C94.8349 59.853 94.7731 59.5842 94.6491 59.4188C94.4973 59.2171 94.2313 59.116 93.85 59.116C93.469 59.116 93.2002 59.2171 93.0443 59.4188C92.9203 59.5891 92.8581 59.8575 92.8581 60.225V63.483H92.1416V60.225C92.1416 59.853 92.0798 59.5842 91.9558 59.4188C91.804 59.2171 91.538 59.116 91.1566 59.116C90.7757 59.116 90.5068 59.2171 90.3509 59.4188C90.2269 59.5891 90.1647 59.8575 90.1647 60.225V63.483H89.4482V60.225C89.4482 59.0035 90.0178 58.3926 91.1566 58.3926C91.7631 58.3926 92.2107 58.5788 92.5 58.9507C92.7934 58.5788 93.2439 58.3926 93.85 58.3926C94.9842 58.3926 95.5514 59.0035 95.5514 60.225V63.483Z" fill="#1A1919"/>
<path fill-rule="evenodd" clip-rule="evenodd" d="M102.736 63.483H102.019V60.225C102.019 59.853 101.957 59.5842 101.833 59.4188C101.681 59.2171 101.415 59.116 101.034 59.116C100.653 59.116 100.384 59.2171 100.228 59.4188C100.104 59.5891 100.042 59.8575 100.042 60.225V63.483H99.3261V60.225C99.3261 59.853 99.2639 59.5842 99.14 59.4188C98.9886 59.2171 98.7218 59.116 98.3408 59.116C97.9594 59.116 97.691 59.2171 97.5351 59.4188C97.4111 59.5891 97.3489 59.8575 97.3489 60.225V63.483H96.6328V60.225C96.6328 59.0035 97.202 58.3926 98.3408 58.3926C98.9472 58.3926 99.3949 58.5788 99.6842 58.9507C99.978 58.5788 100.428 58.3926 101.034 58.3926C102.168 58.3926 102.736 59.0035 102.736 60.225V63.483Z" fill="#1A1919"/>
<path fill-rule="evenodd" clip-rule="evenodd" d="M103.811 63.483H104.527V58.3926H103.811V63.483Z" fill="#1A1919"/>
<path fill-rule="evenodd" clip-rule="evenodd" d="M108.907 59.1021H107.64V63.483H106.924V59.1021H105.656V58.3926H108.907V59.1021Z" fill="#1A1919"/>
<path fill-rule="evenodd" clip-rule="evenodd" d="M80.8525 70.0301H81.5686V64.9397H80.8525V70.0301Z" fill="#1A1919"/>
<path fill-rule="evenodd" clip-rule="evenodd" d="M86.1071 70.0301H85.3906V66.7672C85.3906 66.3944 85.3292 66.1255 85.2048 65.9598C85.0534 65.7528 84.7874 65.6488 84.4061 65.6488C84.0247 65.6488 83.7583 65.7528 83.6069 65.9598C83.4829 66.1255 83.4207 66.3944 83.4207 66.7672V70.0301H82.6973V66.7721C82.6973 65.5506 83.2673 64.9397 84.4061 64.9397C85.5404 64.9397 86.1071 65.5506 86.1071 66.7721V70.0301Z" fill="#1A1919"/>
<path fill-rule="evenodd" clip-rule="evenodd" d="M90.1514 65.6488H88.8842V70.0301H88.1681V65.6488H86.9004V64.9397H90.1514V65.6488Z" fill="#1A1919"/>
<path fill-rule="evenodd" clip-rule="evenodd" d="M93.8011 70.0301H91.0391V64.9397H93.8011V65.6488H91.7625V67.1371H93.4361V67.847H91.7625V69.3205H93.8011V70.0301Z" fill="#1A1919"/>
<path fill-rule="evenodd" clip-rule="evenodd" d="M97.1349 66.5721C97.1349 66.2161 97.0404 65.9665 96.8526 65.8225C96.7008 65.7075 96.4532 65.649 96.1087 65.649H95.3987V67.4953H96.1087C96.4573 67.4953 96.7081 67.438 96.8591 67.3218C97.0429 67.183 97.1349 66.9334 97.1349 66.5721ZM97.858 70.0302H97.1349V69.121C97.1349 68.7629 97.0404 68.515 96.8526 68.3767C96.7008 68.2625 96.4532 68.2052 96.1087 68.2052H95.3987V70.0302H94.6826V64.9398H96.1087C97.2745 64.9398 97.858 65.484 97.858 66.5721C97.858 67.1421 97.6857 67.5664 97.3416 67.8472C97.6857 68.1221 97.858 68.5473 97.858 69.121V70.0302Z" fill="#1A1919"/>
<path fill-rule="evenodd" clip-rule="evenodd" d="M102.35 70.0301H101.634V66.7672C101.634 66.3944 101.572 66.1255 101.448 65.9598C101.297 65.7528 101.03 65.6488 100.648 65.6488C100.267 65.6488 100.001 65.7528 99.8497 65.9598C99.7257 66.1255 99.6635 66.3944 99.6635 66.7672V70.0301H98.9404V66.7721C98.9404 65.5506 99.5096 64.9397 100.648 64.9397C101.783 64.9397 102.35 65.5506 102.35 66.7721V70.0301Z" fill="#1A1919"/>
<path fill-rule="evenodd" clip-rule="evenodd" d="M106.097 67.4952V66.7738C106.097 66.3989 106.035 66.1281 105.912 65.9615C105.757 65.7536 105.49 65.6489 105.111 65.6489C104.733 65.6489 104.469 65.7536 104.318 65.9615C104.195 66.1281 104.133 66.3989 104.133 66.7738V67.4952H106.097ZM106.82 70.0301H106.097V68.2051H104.134V70.0301H103.41V66.7721C103.41 65.5506 103.977 64.9397 105.112 64.9397C106.25 64.9397 106.82 65.5506 106.82 66.7721V70.0301Z" fill="#1A1919"/>
<path fill-rule="evenodd" clip-rule="evenodd" d="M110.863 65.6488H109.596V70.0301H108.88V65.6488H107.612V64.9397H110.863V65.6488Z" fill="#1A1919"/>
<path fill-rule="evenodd" clip-rule="evenodd" d="M111.737 70.0301H112.454V64.9397H111.737V70.0301Z" fill="#1A1919"/>
<path fill-rule="evenodd" clip-rule="evenodd" d="M116.257 68.2072V66.7697C116.257 66.3965 116.195 66.126 116.071 65.9603C115.919 65.7528 115.653 65.6489 115.272 65.6489C114.89 65.6489 114.622 65.7528 114.466 65.9603C114.342 66.126 114.28 66.3965 114.28 66.7697V68.2072C114.28 68.5763 114.342 68.8459 114.466 69.0162C114.622 69.2191 114.89 69.3206 115.272 69.3206C115.653 69.3206 115.919 69.2191 116.071 69.0162C116.195 68.8508 116.257 68.5812 116.257 68.2072ZM116.973 68.2051C116.973 69.4216 116.406 70.0301 115.272 70.0301C114.133 70.0301 113.563 69.4216 113.563 68.2051V66.7721C113.563 65.5506 114.133 64.9397 115.272 64.9397C116.406 64.9397 116.973 65.5506 116.973 66.7721V68.2051Z" fill="#1A1919"/>
<path fill-rule="evenodd" clip-rule="evenodd" d="M121.458 70.0301H120.741V66.7672C120.741 66.3944 120.679 66.1255 120.555 65.9598C120.404 65.7528 120.137 65.6488 119.756 65.6488C119.375 65.6488 119.109 65.7528 118.957 65.9598C118.833 66.1255 118.771 66.3944 118.771 66.7672V70.0301H118.048V66.7721C118.048 65.5506 118.617 64.9397 119.756 64.9397C120.89 64.9397 121.458 65.5506 121.458 66.7721V70.0301Z" fill="#1A1919"/>
<path fill-rule="evenodd" clip-rule="evenodd" d="M125.205 67.4953V66.7738C125.205 66.399 125.143 66.1281 125.02 65.9616C124.865 65.7537 124.598 65.649 124.22 65.649C123.841 65.649 123.577 65.7537 123.426 65.9616C123.303 66.1281 123.241 66.399 123.241 66.7738V67.4953H125.205ZM125.928 70.0302H125.205V68.2052H123.242V70.0302H122.519V66.7722C122.519 65.5507 123.086 64.9398 124.22 64.9398C125.358 64.9398 125.928 65.5507 125.928 66.7722V70.0302Z" fill="#1A1919"/>
<path fill-rule="evenodd" clip-rule="evenodd" d="M128.848 70.0301C127.626 70.0301 127.016 69.589 127.016 68.7076V64.9397H127.732V68.7133C127.732 68.9019 127.796 69.0423 127.925 69.1344C128.095 69.2583 128.402 69.3205 128.848 69.3205V70.0301Z" fill="#1A1919"/>
<path fill-rule="evenodd" clip-rule="evenodd" d="M83.5246 74.0423V73.3209C83.5246 72.9457 83.4629 72.6752 83.3401 72.5086C83.185 72.3008 82.9178 72.196 82.5393 72.196C82.1612 72.196 81.8965 72.3008 81.7459 72.5086C81.6227 72.6752 81.5613 72.9457 81.5613 73.3209V74.0423H83.5246ZM84.2477 76.5772H83.5247V74.7522H81.5613V76.5772H80.8379V73.3192C80.8379 72.0977 81.405 71.4868 82.5393 71.4868C83.6781 71.4868 84.2477 72.0977 84.2477 73.3192V76.5772Z" fill="#1A1919"/>
<path fill-rule="evenodd" clip-rule="evenodd" d="M91.4186 74.7522C91.4186 75.9687 90.851 76.5772 89.7171 76.5772C89.1062 76.5772 88.6565 76.3935 88.3672 76.026C88.082 76.3935 87.6343 76.5772 87.0238 76.5772C85.8846 76.5772 85.3154 75.9687 85.3154 74.7522V71.4868H86.0385V74.7567C86.0385 75.1295 86.1007 75.3987 86.2243 75.564C86.3765 75.7666 86.6425 75.8677 87.0238 75.8677C87.4048 75.8677 87.6712 75.7666 87.823 75.564C87.9466 75.3987 88.0088 75.1295 88.0088 74.7567V71.4868H88.7253V74.7567C88.7253 75.1254 88.787 75.3938 88.911 75.564C89.0673 75.7666 89.3358 75.8677 89.7171 75.8677C90.0981 75.8677 90.3645 75.7666 90.5163 75.564C90.6399 75.3987 90.7021 75.1295 90.7021 74.7567V71.4868H91.4186V74.7522Z" fill="#1A1919"/>
<path fill-rule="evenodd" clip-rule="evenodd" d="M95.179 74.0424V73.321C95.179 72.9457 95.1176 72.6753 94.9944 72.5087C94.8393 72.3008 94.5725 72.1961 94.1944 72.1961C93.8155 72.1961 93.5512 72.3008 93.401 72.5087C93.2778 72.6753 93.216 72.9457 93.216 73.321V74.0424H95.179ZM95.9026 76.5773H95.1791V74.7523H93.2162V76.5773H92.4932V73.3193C92.4932 72.0979 93.0603 71.4869 94.1946 71.4869C95.3334 71.4869 95.9026 72.0979 95.9026 73.3193V76.5773Z" fill="#1A1919"/>
<path fill-rule="evenodd" clip-rule="evenodd" d="M99.4494 73.1192C99.4494 72.7632 99.3548 72.5136 99.1666 72.3696C99.0152 72.2546 98.7672 72.1961 98.4231 72.1961H97.7136V74.0424H98.4231C98.7717 74.0424 99.0222 73.9851 99.1736 73.8689C99.3573 73.7306 99.4494 73.4806 99.4494 73.1192ZM100.172 76.5773H99.4494V75.6681C99.4494 75.3101 99.3549 75.0621 99.1666 74.9238C99.0152 74.8096 98.7673 74.7523 98.4231 74.7523H97.7136V76.5773H96.9971V71.4869H98.4231C99.5893 71.4869 100.172 72.0312 100.172 73.1192C100.172 73.6892 99.9997 74.1136 99.656 74.3943C99.9997 74.6693 100.172 75.0944 100.172 75.6681V76.5773Z" fill="#1A1919"/>
<path fill-rule="evenodd" clip-rule="evenodd" d="M103.59 74.7544V73.3169C103.59 72.9437 103.528 72.6732 103.404 72.5075C103.252 72.3 102.986 72.1961 102.605 72.1961H101.958V75.8678H102.605C102.986 75.8678 103.252 75.7663 103.404 75.5634C103.528 75.398 103.59 75.1284 103.59 74.7544ZM104.313 74.7523C104.313 75.9689 103.744 76.5773 102.605 76.5773H101.241V71.4869H102.605C103.744 71.4869 104.313 72.0979 104.313 73.3193V74.7523Z" fill="#1A1919"/>
<path fill-rule="evenodd" clip-rule="evenodd" d="M108.452 75.1307C108.452 75.5072 108.363 75.8149 108.184 76.0538C107.926 76.4029 107.5 76.5772 106.903 76.5772C106.306 76.5772 105.879 76.4029 105.622 76.0538C105.438 75.8104 105.346 75.5006 105.346 75.1237H106.062C106.062 75.4163 106.136 75.6176 106.283 75.7285C106.407 75.8214 106.613 75.8677 106.903 75.8677C107.192 75.8677 107.397 75.8218 107.516 75.7298C107.663 75.6238 107.736 75.4266 107.736 75.1364C107.736 74.9294 107.663 74.7706 107.516 74.6601C107.397 74.573 107.153 74.4739 106.786 74.3635C106.345 74.2301 106.03 74.0946 105.842 73.9567C105.511 73.7132 105.346 73.3748 105.346 72.9427C105.346 72.5655 105.438 72.2553 105.622 72.0114C105.879 71.6615 106.306 71.4868 106.903 71.4868C107.5 71.4868 107.926 71.6615 108.184 72.0102C108.363 72.2536 108.452 72.5638 108.452 72.9403H107.736C107.736 72.6485 107.663 72.4468 107.516 72.3351C107.392 72.2426 107.187 72.196 106.903 72.196C106.613 72.196 106.407 72.2426 106.283 72.3347C106.136 72.4456 106.062 72.6461 106.062 72.937C106.062 73.1306 106.136 73.2807 106.283 73.3871C106.397 73.4702 106.634 73.5643 106.992 73.6707C107.442 73.8037 107.764 73.9436 107.957 74.0905C108.287 74.334 108.452 74.681 108.452 75.1307Z" fill="#1A1919"/>
</svg>
