<svg width="167" height="128" viewBox="0 0 167 128" fill="none" xmlns="http://www.w3.org/2000/svg">
<rect width="165.724" height="127.26" transform="translate(0.413086 0.0834961)" fill="white"/>
<path fill-rule="evenodd" clip-rule="evenodd" d="M68.4782 12.2483H68.5655V11.1976C68.1495 11.1242 67.6837 11.0635 67.2553 11.0635C66.0076 11.0635 65.3931 11.8778 65.3931 12.7465C65.3931 13.7484 66.0574 14.3503 66.9074 15.0434C67.8261 15.7964 68.3669 16.252 68.3669 17.1206C68.3669 17.8375 67.8822 18.2747 67.2368 18.2747C66.672 18.2747 66.2251 18.0557 65.0388 17.1447H64.9345L65.3685 18.3293C65.8589 18.4637 66.399 18.5483 66.9707 18.5483C68.3921 18.5483 69.2172 17.7043 69.2172 16.5315C69.2172 15.45 68.5712 14.8975 67.6522 14.1685C66.8084 13.4995 66.2314 12.9593 66.2314 12.1817C66.2314 11.6773 66.5724 11.3312 67.1003 11.3312C67.4671 11.3312 67.7211 11.4707 68.4782 12.2483ZM62.8001 12.3391H62.8863V11.2506H58.6035V11.3235C59.0968 11.719 59.1645 11.8345 59.1645 12.2665V17.5323C59.1645 17.9643 59.0968 18.0795 58.6035 18.4748V18.5483H60.825V18.4748C60.3251 18.1045 60.239 17.9643 60.239 17.5512V14.9419H60.72C61.3498 14.9419 61.4605 14.9845 61.9976 15.6592H62.0715V13.9448H61.9976C61.4605 14.6195 61.3498 14.6621 60.72 14.6621H60.239V11.518H60.9729C61.2693 11.518 61.5222 11.615 62.8001 12.3391ZM64.3757 15.3672H62.8861L63.5918 13.3089C63.6243 13.3828 63.6572 13.4646 63.6922 13.5613L64.3757 15.3672ZM64.2697 12.5604L65.5589 16.0444C65.7263 16.4992 65.7937 16.6197 66.2382 16.9783V17.0513H64.35V16.9783C64.6331 16.8205 64.7387 16.693 64.7387 16.5411C64.7387 16.4446 64.7199 16.3352 64.6274 16.0737L64.4759 15.6614H62.8236L62.7386 15.9165C62.6581 16.154 62.6274 16.2927 62.6274 16.3956C62.6274 16.6085 62.7509 16.7537 63.1213 16.9783V17.0513H61.7692V16.9783C62.2077 16.5775 62.3186 16.4138 62.4916 15.898L63.4557 13.0182C63.3719 12.8921 63.2669 12.7777 63.1025 12.6273V12.5604H64.2697ZM73.8726 12.3391H73.7867C72.6004 11.5974 72.3607 11.5001 72.0841 11.5001H71.8931V17.5512C71.8931 17.9643 71.9796 18.1045 72.4774 18.4748V18.5483H70.2399V18.4748C70.738 18.1045 70.8244 17.9643 70.8244 17.5512V11.5001H70.6331C70.3569 11.5001 70.1166 11.5974 68.9302 12.3391H68.845V11.2506H73.8726V12.3391ZM80.1819 12.1396H80.2683V11.1979C79.7738 11.1246 79.1396 11.0635 78.5605 11.0635C75.9685 11.0635 74.4311 12.513 74.4311 14.9148C74.4311 17.2744 75.9013 18.7354 78.4626 18.7354C79.1269 18.7354 79.7248 18.6373 80.2008 18.5094L80.3897 17.464H80.3045C79.3467 18.2769 78.9197 18.466 78.2248 18.466C76.3098 18.466 75.6691 17.0174 75.6691 14.8723C75.6691 12.6893 76.3098 11.3571 78.1214 11.3571C78.6999 11.3571 79.1095 11.4918 80.1819 12.1396ZM78.9938 16.8642C79.9092 16.8642 80.0175 16.0455 80.0175 14.8063C80.0175 13.5671 79.9154 12.7476 78.9938 12.7476C78.0718 12.7476 77.9692 13.5671 77.9692 14.8063C77.9692 16.0455 78.0718 16.8642 78.9938 16.8642ZM80.9484 14.8065C80.9484 13.5235 80.1785 12.5604 78.9 12.5604C77.6212 12.5604 76.8519 13.53 76.8519 14.8065C76.8519 16.0764 77.6212 17.0513 78.9 17.0513C80.1785 17.0513 80.9484 16.0764 80.9484 14.8065ZM87.6517 18.4867L85.4955 18.4742V18.4001C85.9802 18.0047 86.0466 17.8873 86.0466 17.4482V12.2444L84.0967 18.5483H84.0121L82.0666 12.4227C82.0583 12.3938 82.0496 12.3684 82.0408 12.3427L82.0312 12.3146V16.9288C82.0312 17.5537 82.1337 17.801 82.8613 18.4121V18.4867H81.1344V18.4121C81.6797 17.7699 81.7523 17.5286 81.7523 16.9288V11.7433C81.6226 11.5703 81.4441 11.4019 81.1532 11.1438V11.0697H82.6974L84.4313 16.5424L86.1262 11.0635L87.6517 11.076V11.1498C87.167 11.5458 87.1009 11.6632 87.1009 12.1023V17.4542C87.1009 17.8933 87.167 18.0103 87.6517 18.4121V18.4867ZM91.7483 13.4152C91.7483 14.7923 91.4126 15.3672 90.3257 15.3672H89.7V11.4377H90.1422C91.3433 11.4377 91.7483 11.9331 91.7483 13.4152ZM90.1928 11.2506C91.7299 11.2506 92.8654 11.7919 92.8654 13.434C92.8654 15.1062 91.7241 15.6898 90.3664 15.6898H89.8021V17.5512C89.8021 17.9643 89.886 18.1045 90.3731 18.4748V18.5483H88.2102V18.4748C88.6904 18.0795 88.7563 17.9643 88.7563 17.5323V12.2665C88.7563 11.8345 88.6904 11.719 88.2102 11.3235V11.2506H90.1928ZM95.6588 15.9286H93.6105L94.6196 12.1862C94.6409 12.2502 94.6619 12.3181 94.6829 12.3955L95.6588 15.9286ZM107.948 11.2506V11.3235C107.397 11.9682 107.219 12.2236 106.986 12.7646L105.884 15.3122V17.5512C105.884 17.9643 105.969 18.1045 106.466 18.4748V18.5483H104.236V18.4748C104.732 18.1045 104.818 17.9643 104.818 17.5512V15.3454L103.495 12.4431C103.267 11.9377 103.091 11.6588 102.815 11.3273C102.392 11.9797 102.331 12.2207 102.331 12.8254V18.5483H101.657L98.4163 12.461C98.413 12.4544 98.4098 12.4485 98.4065 12.4427C98.4037 12.4376 98.4009 12.4325 98.398 12.427V17.0337C98.398 17.6361 98.5078 17.8735 99.3293 18.4748V18.5483H95.6047V18.4748C95.9789 18.1836 96.0582 18.0554 96.0582 17.8674C96.0582 17.7336 96.0212 17.5876 95.9232 17.2467L95.6124 16.1582H93.3789L93.148 16.986C93.0746 17.2405 93.0441 17.4292 93.0441 17.5629C93.0441 17.8976 93.203 18.0919 93.7119 18.4748V18.5483H91.9346V18.4748C92.4861 17.9585 92.6515 17.7336 92.8602 16.986L94.3022 11.8339C94.1912 11.6688 94.0438 11.5271 93.8096 11.3235V11.2506H95.2983L97.0312 17.2529C97.2029 17.8521 97.2764 18.0537 97.615 18.4748C98.0546 17.8224 98.1159 17.5835 98.1159 17.0337V11.9729C97.9569 11.764 97.7725 11.5947 97.4543 11.3235V11.2506H98.9797L102.049 17.0231V12.8254C102.049 12.1628 101.939 11.9262 101.118 11.3235V11.2506H104.793V11.3235C104.493 11.4757 104.383 11.5853 104.383 11.7799C104.383 11.8892 104.413 12.0047 104.512 12.2171L105.757 14.9592L106.71 12.7467C106.834 12.4669 106.87 12.3453 106.87 12.1933C106.87 11.9071 106.736 11.719 106.288 11.3235V11.2506H107.948Z" fill="#1C2D41"/>
<path fill-rule="evenodd" clip-rule="evenodd" d="M83.2753 44.4526C92.1343 44.4526 99.3417 51.6957 99.3417 60.5984C99.3417 69.5013 92.1343 76.7438 83.2753 76.7438C74.4155 76.7438 67.208 69.5013 67.208 60.5984C67.208 51.6957 74.4155 44.4526 83.2753 44.4526ZM68.1481 60.5982C68.1481 68.9792 74.9339 75.7986 83.2749 75.7986C91.6156 75.7986 98.4008 68.9792 98.4008 60.5982C98.4008 52.2166 91.6156 45.3976 83.2749 45.3976C74.9339 45.3976 68.1481 52.2166 68.1481 60.5982Z" fill="#D5699D"/>
<path fill-rule="evenodd" clip-rule="evenodd" d="M58.5127 60.5983C58.5127 46.8623 69.6328 35.6874 83.3021 35.6874C96.9708 35.6874 108.092 46.8623 108.092 60.5983C108.092 74.3342 96.9708 85.5091 83.3021 85.5091C69.6328 85.5091 58.5127 74.3342 58.5127 60.5983ZM59.4531 60.5983C59.4531 73.8129 70.1518 84.5638 83.302 84.5638C96.4521 84.5638 107.151 73.8129 107.151 60.5983C107.151 47.3837 96.4521 36.6329 83.302 36.6329C70.1518 36.6329 59.4531 47.3837 59.4531 60.5983Z" fill="#4EC0E3"/>
<path fill-rule="evenodd" clip-rule="evenodd" d="M56.6836 60.598C56.6836 45.8635 68.613 33.8756 83.2762 33.8756C97.9388 33.8756 109.867 45.8635 109.867 60.598C109.867 75.3328 97.9388 87.3206 83.2762 87.3206C68.613 87.3206 56.6836 75.3328 56.6836 60.598ZM57.6237 60.5981C57.6237 74.8121 69.1309 86.3756 83.2758 86.3756C97.4199 86.3756 108.927 74.8121 108.927 60.5981C108.927 46.3847 97.4199 34.8212 83.2758 34.8212C69.1309 34.8212 57.6237 46.3847 57.6237 60.5981Z" fill="#725B97"/>
<path d="M75.8086 57.3607C75.8475 56.8933 75.9283 56.435 76.0494 55.9905C75.0034 56.7225 74.1007 57.4964 73.3652 58.2813C73.5518 58.5243 73.7579 58.7695 73.9847 59.0155C74.5017 58.4582 75.1145 57.9023 75.8086 57.3607Z" fill="#4EC0E3"/>
<path d="M90.5283 55.9919C90.6483 56.4335 90.7296 56.8915 90.7686 57.3622C91.4627 57.9041 92.0755 58.4605 92.5919 59.018C92.8192 58.772 93.0254 58.5269 93.2119 58.2844C92.477 57.4987 91.5749 56.7245 90.5283 55.9919Z" fill="#725B97"/>
<path d="M93.2286 59.7196C93.2222 59.7263 93.216 59.7331 93.2093 59.7395C94.2837 61.123 94.7205 62.4665 94.2875 63.5317C93.7984 64.7328 92.1802 65.4756 89.8466 65.5692C88.9627 65.6048 88.0112 65.5479 87.0199 65.4071C86.7027 65.3623 86.3819 65.3086 86.0574 65.2463C85.6636 65.1705 85.2648 65.0829 84.8627 64.9825C84.3374 65.1808 83.8126 65.3615 83.29 65.5233C84.1162 65.7788 84.9354 65.9873 85.7372 66.1464C86.0507 66.2093 86.3615 66.2632 86.6686 66.3104C87.5887 66.4509 88.479 66.5248 89.3202 66.5248C89.5111 66.5248 89.6987 66.5213 89.8844 66.5135C92.6413 66.4029 94.5146 65.4707 95.1577 63.889H95.1582C95.7418 62.4557 95.2087 60.7273 93.8425 59.011C93.6543 59.2462 93.4503 59.4827 93.2286 59.7196Z" fill="#725B97"/>
<path d="M88.3964 63.5291C88.5333 63.4015 88.6621 63.268 88.7886 63.1321C88.085 63.5372 87.3437 63.9181 86.572 64.2701C86.3755 64.5821 86.2035 64.9088 86.0566 65.2465C86.3812 65.3088 86.7019 65.3625 87.0192 65.4075C87.3552 64.7076 87.8188 64.0678 88.3964 63.5291Z" fill="#1C2D41"/>
<path d="M78.0885 52.5601C77.0959 53.5179 76.4029 54.6969 76.0502 55.9902C75.9291 56.435 75.8484 56.893 75.8094 57.3605C75.7923 57.5725 75.7812 57.7858 75.7812 58.0016C75.7812 59.107 76.0287 60.191 76.4853 61.1788C77.075 61.5987 77.7093 62.0012 78.3795 62.3823C77.3066 61.1755 76.7218 59.6418 76.7218 58.0016C76.7218 56.1885 77.4384 54.4981 78.7394 53.2417C79.9747 52.0495 81.5803 51.4021 83.2864 51.4021C83.3771 51.4021 83.4686 51.404 83.5599 51.4078C86.9051 51.5427 89.6051 54.1723 89.8389 57.5239C89.9648 59.3225 89.3686 61.0604 88.1938 62.385C88.8697 62.0012 89.5074 61.5958 90.1019 61.1723C90.6294 60.0297 90.8685 58.7571 90.7778 57.4576C90.7751 57.4255 90.7711 57.3939 90.7684 57.3621C90.7295 56.8914 90.6482 56.4331 90.5282 55.9919C90.1564 54.6249 89.4137 53.4178 88.4155 52.4821C88.0733 52.1614 87.7015 51.8728 87.304 51.6209C86.2236 50.9355 84.9581 50.5182 83.5977 50.4632C82.045 50.4012 80.5528 50.8069 79.2757 51.6217C78.8857 51.8709 78.5167 52.1598 78.1712 52.4838C78.1441 52.5097 78.1151 52.5339 78.0885 52.5601Z" fill="#1C2D41"/>
<path d="M77.7891 63.1321C77.9101 63.2634 78.0344 63.3921 78.1656 63.5148C78.7511 64.0643 79.2208 64.7092 79.5601 65.4075C79.8771 65.3625 80.1986 65.3085 80.5231 65.246C80.3752 64.9093 80.2018 64.5824 80.0029 64.269C79.2323 63.9173 78.4915 63.5369 77.7891 63.1321Z" fill="#1C2D41"/>
<path fill-rule="evenodd" clip-rule="evenodd" d="M85.7364 66.1467C85.6062 66.6023 85.5209 67.0716 85.4825 67.5471L81.1009 67.5727C81.0668 67.0897 80.9814 66.6117 80.8478 66.1459C80.5337 66.2085 80.2229 66.2629 79.915 66.3099C80.0876 66.8744 80.1797 67.46 80.1797 68.0499V70.57C80.1797 71.001 80.3472 71.4056 80.651 71.7096C80.953 72.0111 81.3532 72.1768 81.7784 72.1768H81.7883L84.8085 72.1592C85.6849 72.1538 86.3983 71.4334 86.3983 70.5522V68.1154C86.3983 67.4999 86.4923 66.8919 86.6678 66.3101C86.3607 66.2635 86.0499 66.209 85.7364 66.1467ZM84.8026 71.2139L81.7824 71.232C81.608 71.2317 81.4397 71.1645 81.3143 71.0397C81.189 70.9142 81.1202 70.7478 81.1202 70.5701V70.3494L85.4581 70.3238V70.5523C85.4581 70.9153 85.1644 71.2117 84.8026 71.2139ZM85.4581 68.4924L81.1202 68.5177V69.404L85.4581 69.3784V68.4924Z" fill="#1C2D41"/>
<path fill-rule="evenodd" clip-rule="evenodd" d="M81.3643 58.0192C81.3643 56.9583 82.2235 56.0952 83.2791 56.0952C84.3351 56.0952 85.1943 56.9583 85.1943 58.0192C85.1943 59.08 84.3351 59.9434 83.2791 59.9434C82.2235 59.9434 81.3643 59.08 81.3643 58.0192ZM82.3045 58.019C82.3045 58.5601 82.7407 58.9984 83.2786 58.9984C83.8165 58.9984 84.2527 58.5601 84.2527 58.019C84.2527 57.4785 83.8165 57.0401 83.2786 57.0401C82.7407 57.0401 82.3045 57.4785 82.3045 58.019Z" fill="#D5699D"/>
<path fill-rule="evenodd" clip-rule="evenodd" d="M87.245 54.8683C87.5711 55.2826 87.8148 55.6985 87.9888 56.139L88.1015 56.4251L87.0064 57.5456C87.0279 57.7072 87.0383 57.8674 87.0383 58.0225C87.0383 58.1787 87.0279 58.3351 87.0075 58.495L88.1015 59.615L87.9882 59.9011C87.8143 60.3413 87.5701 60.7573 87.2434 61.1718L87.0536 61.413L85.5433 61.0211C85.2952 61.2104 85.0258 61.3671 84.7386 61.4888L84.3201 63.0028L83.972 63.0543C83.7529 63.0869 83.5264 63.1206 83.2778 63.1206C83.0373 63.1206 82.8191 63.0885 82.6079 63.0567L82.2463 63.0047L81.8279 61.4912C81.5391 61.3693 81.268 61.212 81.0189 61.0219L79.5045 61.4151L79.3147 61.174C78.9875 60.7605 78.7449 60.3467 78.5701 59.9095L78.4566 59.6228L79.5541 58.4994C79.5332 58.3373 79.5222 58.1784 79.5222 58.0225C79.5222 57.8652 79.5332 57.7045 79.5547 57.5416L78.4561 56.4173L78.5696 56.1309C78.7443 55.6931 78.987 55.2791 79.3131 54.8658L79.5029 54.625L81.0248 55.0201C81.2723 54.8321 81.5407 54.6768 81.8257 54.5559L82.2469 53.0338L82.6111 52.9807L82.6155 52.98C82.8243 52.9495 83.0406 52.9178 83.2778 52.9178C83.523 52.9178 83.7465 52.9509 83.9633 52.983L83.9695 52.9839L84.319 53.0354L84.7402 54.5581C85.0247 54.6786 85.291 54.8337 85.5374 55.0207L87.0547 54.6271L87.245 54.8683ZM86.098 58.0224C86.098 57.8457 86.0803 57.6666 86.043 57.476L85.9952 57.2318L86.9918 56.2117C86.9065 56.0388 86.8053 55.8684 86.688 55.6984L85.3038 56.0577L85.1172 55.8948C84.8461 55.6582 84.5364 55.4783 84.196 55.3594L83.9633 55.2787L83.5781 53.8834C83.3779 53.8597 83.1889 53.8589 82.9882 53.8826L82.603 55.2777L82.3692 55.3583C82.0283 55.4764 81.717 55.6564 81.4442 55.8943L81.2577 56.0564L79.8695 55.696C79.7527 55.8646 79.6526 56.0337 79.567 56.205L80.5668 57.2278L80.5185 57.4722C80.482 57.6607 80.4635 57.846 80.4635 58.0224C80.4635 58.1999 80.4812 58.3787 80.5185 58.5692L80.5663 58.8133L79.5675 59.8347C79.6537 60.0057 79.7538 60.1749 79.8711 60.3437L81.2534 59.985L81.4408 60.1484C81.7137 60.3871 82.0267 60.5692 82.3708 60.6882L82.6046 60.7688L82.9876 62.1558C83.1889 62.1795 83.3779 62.179 83.5787 62.155L83.9617 60.7677L84.195 60.686C84.538 60.5673 84.8493 60.3863 85.1221 60.1474L85.3086 59.9842L86.6869 60.3416C86.8047 60.1714 86.9059 60.0003 86.9913 59.828L85.9957 58.8087L86.043 58.5651C86.0803 58.3752 86.098 58.198 86.098 58.0224Z" fill="#D5699D"/>
<path d="M73.3677 59.7371C74.5176 60.9625 76.0346 62.1215 77.7887 63.1322C78.4912 63.537 79.232 63.9176 80.0026 64.2691C80.3225 64.415 80.6471 64.5571 80.9761 64.6925C81.2225 64.7937 81.4689 64.8894 81.7153 64.9825C82.2345 64.8528 82.7597 64.7025 83.2883 64.5323C82.6382 64.3233 81.9848 64.0859 81.3321 63.8178C80.2919 63.3903 79.3018 62.9067 78.3787 62.3823C77.7085 62.0014 77.0747 61.5987 76.4845 61.1788C75.5491 60.5133 74.7218 59.8056 74.0379 59.0741C74.0194 59.0544 74.0033 59.0347 73.9848 59.0155C73.7579 58.7693 73.5518 58.5244 73.3653 58.2813C72.2701 56.8569 71.8774 55.508 72.2905 54.4933C72.9092 52.9717 75.1921 52.296 78.1704 52.4838C78.5159 52.1598 78.8849 51.8709 79.2749 51.6217C75.3521 51.1465 72.2852 52.0085 71.4198 54.1353C70.8521 55.5306 71.3202 57.2383 72.735 59.0083C72.9243 59.2448 73.1293 59.4827 73.3526 59.7214C73.3572 59.7265 73.3626 59.7317 73.3677 59.7371Z" fill="#725B97"/>
<path d="M80.847 66.146C81.6468 65.9866 82.4642 65.7781 83.2885 65.5232C83.8111 65.3616 84.3358 65.1812 84.8611 64.9826C85.1075 64.8893 85.3534 64.7938 85.5998 64.6927C85.9283 64.5573 86.252 64.4157 86.5712 64.27C87.3429 63.918 88.0842 63.5374 88.7877 63.1323C90.5413 62.1222 92.0573 60.9639 93.2077 59.7399C93.2144 59.7334 93.2206 59.7267 93.227 59.7199C93.4487 59.4829 93.6527 59.2463 93.8409 59.0111C95.2595 57.2395 95.7297 55.53 95.1615 54.1336L94.7264 54.3124L95.1615 54.1333C94.2958 52.0062 91.2281 51.1447 87.3034 51.6208C87.7009 51.8727 88.0727 52.1613 88.4149 52.482C91.3916 52.2951 93.6721 52.9708 94.2908 54.4912C94.7038 55.507 94.3095 56.8578 93.2117 58.2844C93.0246 58.5269 92.8185 58.7718 92.5912 59.0178C92.5742 59.0362 92.5592 59.054 92.5418 59.0723C91.8592 59.8022 91.0341 60.5086 90.1019 61.1724C89.5068 61.5954 88.8685 62.0013 88.1932 62.3851C87.2709 62.9081 86.2823 63.391 85.2439 63.8177C84.5911 64.0858 83.9372 64.3229 83.2885 64.5327C82.76 64.7024 82.2347 64.8529 81.7156 64.9826C81.314 65.0832 80.9162 65.1706 80.523 65.2462C80.1985 65.3087 79.8766 65.363 79.5599 65.408C78.5665 65.5488 77.6134 65.606 76.7273 65.5709C74.3935 65.4776 72.7741 64.7353 72.2854 63.5337C71.8513 62.4677 72.2902 61.1223 73.3679 59.7369C73.3628 59.7318 73.3574 59.7267 73.3528 59.7216C73.1295 59.4829 72.9245 59.245 72.7352 59.0081C71.3655 60.726 70.8306 62.4564 71.4146 63.8919C72.0586 65.4733 73.9321 66.4049 76.6898 66.5155C76.8747 66.5228 77.0618 66.5263 77.2516 66.5263C78.0968 66.5263 78.9906 66.4519 79.9142 66.31C80.2221 66.263 80.5329 66.2086 80.847 66.146Z" fill="#4EC0E3"/>
<path d="M77.3895 38.9988L78.8236 42.762L77.8444 43.1391L77.0126 40.9562L76.7128 42.5201L76.1993 42.7178L74.9367 41.7549L75.7685 43.9378L74.7893 44.3143L73.3555 40.5511L74.4144 40.1435L75.9929 41.3546L76.3515 39.3982L77.3895 38.9988Z" fill="#1C2D41"/>
<path fill-rule="evenodd" clip-rule="evenodd" d="M79.3822 40.5898C79.4845 41.7545 80.5133 42.5936 81.6833 42.49C82.8531 42.3862 83.7198 41.3785 83.6175 40.2143C83.515 39.0499 82.4867 38.2105 81.3164 38.3143C80.1461 38.4182 79.28 39.4256 79.3822 40.5898ZM80.4842 40.4922C80.4335 39.9131 80.8388 39.4144 81.4094 39.3639C81.9801 39.3132 82.4654 39.7326 82.5164 40.312C82.5674 40.8914 82.1623 41.3896 81.592 41.4406C81.0208 41.491 80.5355 41.0719 80.4842 40.4922Z" fill="#1C2D41"/>
<path d="M84.6517 40.9343C84.9819 41.2607 85.4916 41.5428 85.9568 41.6094C86.1269 41.6337 86.4557 41.6396 86.4922 41.3831C86.5695 40.8361 84.5771 41.0516 84.7883 39.5579C84.914 38.6686 85.7007 38.3449 86.5231 38.4622C86.9826 38.5278 87.4164 38.6945 87.7876 38.9742L87.6338 40.0628C87.3157 39.7734 86.8382 39.5077 86.4072 39.4459C86.2198 39.4195 85.9355 39.4251 85.9041 39.6477C85.8293 40.1777 87.8265 40.0498 87.6252 41.4751C87.4945 42.3989 86.6568 42.7153 85.8459 42.5993C85.3807 42.5332 84.8681 42.3496 84.4912 42.0688L84.6517 40.9343Z" fill="#1C2D41"/>
<path d="M89.2258 39.0621L92.1109 40.0866L91.7752 41.0422L90.8403 40.7105L89.8402 43.5553L88.8242 43.1947L89.8243 40.3498L88.8897 40.0178L89.2258 39.0621Z" fill="#1C2D41"/>
<path d="M97.4678 43.4579L94.9755 46.6156L94.123 45.9359L96.6147 42.7784L97.4678 43.4579Z" fill="#1C2D41"/>
<path d="M101.228 47.3801L98.1999 50.0224L97.4865 49.1962L98.1862 46.5197L96.4684 48.018L95.7812 47.2223L98.8098 44.5803L99.531 45.4149L98.8065 48.0979L100.541 46.5844L101.228 47.3801Z" fill="#1C2D41"/>
<path d="M103.955 52.3407L100.362 54.132L99.8787 53.1518L101.226 50.7385L99.1889 51.7543L98.7227 50.8103L102.315 49.0193L102.804 50.0095L101.431 52.423L103.489 51.3967L103.955 52.3407Z" fill="#1C2D41"/>
<path fill-rule="evenodd" clip-rule="evenodd" d="M102.613 54.4516C101.472 54.6825 100.756 55.8024 100.988 56.9596C101.22 58.117 102.312 58.8711 103.452 58.6397C104.593 58.4091 105.309 57.2889 105.077 56.132C104.845 54.9749 103.753 54.2207 102.613 54.4516ZM102.83 55.5412C103.398 55.426 103.935 55.7753 104.049 56.3398C104.161 56.9044 103.801 57.4357 103.234 57.5504C102.666 57.6655 102.129 57.3162 102.015 56.7517C101.902 56.1874 102.263 55.6561 102.83 55.5412Z" fill="#1C2D41"/>
<path d="M101.428 60.8081L105.495 59.4343L105.451 60.5907L103.006 61.3653L105.384 62.3223L105.34 63.4441L101.392 61.7518L101.428 60.8081Z" fill="#1C2D41"/>
<path fill-rule="evenodd" clip-rule="evenodd" d="M100.379 67.0201L104.655 66.4499L104.893 65.4891L101.387 62.965L101.121 64.0374L101.721 64.449L101.375 65.84L100.651 65.9252L100.379 67.0201ZM102.329 65.7588L102.523 64.9769L103.488 65.6348L102.329 65.7588Z" fill="#1C2D41"/>
<path d="M104.001 68.5961L102.703 71.38L101.79 70.9503L102.211 70.048L99.4922 68.7684L99.949 67.788L102.667 69.0681L103.088 68.1659L104.001 68.5961Z" fill="#1C2D41"/>
<path d="M101.345 73.4575L98.0215 71.2012L98.6311 70.2941L101.955 72.5509L101.345 73.4575Z" fill="#1C2D41"/>
<path d="M96.6438 72.8962L100.585 74.6001L99.7837 75.4314L97.4491 74.3695L98.5837 76.6765L97.8061 77.4827L95.9902 73.5746L96.6438 72.8962Z" fill="#1C2D41"/>
<path d="M96.6326 78.3591L94.6101 79.7323L94.065 78.9212L95.1953 78.1538L94.8872 77.6958L93.8709 78.3858L93.3448 77.6033L94.3611 76.9136L94.0403 76.4364L92.9006 77.2098L92.3555 76.3984L94.3876 75.0193L96.6326 78.3591Z" fill="#1C2D41"/>
<path d="M87.9862 82.3984C87.6856 82.4715 87.3493 82.4702 87.0208 82.3776L86.7574 81.2809C87.0481 81.412 87.337 81.4603 87.6765 81.3783C88.2836 81.2305 88.573 80.6932 88.4388 80.1335C88.3057 79.5789 87.8029 79.2272 87.1958 79.3742C86.8619 79.4551 86.6364 79.6224 86.4136 79.8716L86.1514 78.7803C86.4426 78.5205 86.7523 78.3862 87.0143 78.3228C88.1841 78.039 89.2373 78.6961 89.5192 79.8713C89.7935 81.0131 89.1391 82.119 87.9862 82.3984Z" fill="#1C2D41"/>
<path fill-rule="evenodd" clip-rule="evenodd" d="M85.6112 80.7609C85.5924 79.5924 84.6267 78.681 83.4524 78.6999C82.2781 78.7188 81.3421 79.6609 81.3606 80.8297C81.3794 81.9984 82.3452 82.9095 83.5195 82.8907C84.6938 82.8715 85.63 81.9296 85.6112 80.7609ZM84.5059 80.7785C84.5153 81.3601 84.0759 81.8278 83.5029 81.8367C82.9301 81.8464 82.4759 81.393 82.4665 80.8117C82.4571 80.2299 82.8965 79.7622 83.4693 79.7533C84.0424 79.7438 84.4968 80.197 84.5059 80.7785Z" fill="#1C2D41"/>
<path d="M75.3418 81.4471L76.402 77.5608L77.4131 77.8392L76.7982 80.0933L77.961 79.0109L78.4914 79.1571L78.9418 80.684L79.5567 78.4299L80.5681 78.7082L79.5079 82.595L78.4135 82.2937L77.855 80.3787L76.4138 81.7424L75.3418 81.4471Z" fill="#1C2D41"/>
<path fill-rule="evenodd" clip-rule="evenodd" d="M73.6935 77.4849C72.8764 77.0194 72.061 77.1443 71.6318 77.9057C71.1991 78.6717 71.5137 79.4332 72.3313 79.8996L73.5824 80.6119L75.5608 77.1057L74.6235 76.5719L74.0075 77.664L73.6935 77.4849ZM73.2078 78.3006L73.5417 78.4907L73.1179 79.2416L72.784 79.0517C72.5397 78.9126 72.4441 78.673 72.5767 78.4376C72.7099 78.2021 72.9635 78.1611 73.2078 78.3006Z" fill="#1C2D41"/>
<path fill-rule="evenodd" clip-rule="evenodd" d="M69.8009 72.9137L68.3584 76.9988L69.1003 77.6501L72.9338 75.6636L72.1052 74.9361L71.4669 75.2854L70.3927 74.3427L70.6466 73.656L69.8009 72.9137ZM70.0296 75.2326L70.6341 75.7626L69.612 76.3261L70.0296 75.2326Z" fill="#1C2D41"/>
<path d="M64.0156 71.6724L67.3147 69.3816L67.9334 70.2811L66.9451 72.8638L68.8162 71.5645L69.4121 72.4312L66.113 74.7222L65.4876 73.813L66.5017 71.2268L64.6118 72.539L64.0156 71.6724Z" fill="#1C2D41"/>
<path d="M62.8252 69.0844L66.4901 67.4485L66.9319 68.4481L63.267 70.0837L62.8252 69.0844Z" fill="#1C2D41"/>
<path d="M62.2324 67.5518L61.5898 65.186L62.5293 64.9281L62.8884 66.2498L63.4188 66.1047L63.0962 64.9162L64.0023 64.6675L64.3253 65.8557L64.8779 65.7041L64.5161 64.3714L65.4555 64.1135L66.1008 66.4909L62.2324 67.5518Z" fill="#1C2D41"/>
<path d="M63.9208 63.422C64.168 63.029 64.3344 62.4682 64.3003 61.9975C64.2879 61.8252 64.2243 61.5009 63.9669 61.5196C63.4186 61.5597 64.0507 63.4705 62.5537 63.5797C61.662 63.6445 61.1802 62.9408 61.1204 62.1081C61.0868 61.6428 61.1566 61.1819 61.3502 60.7581L62.4415 60.6783C62.2273 61.0518 62.0698 61.577 62.1014 62.0132C62.1154 62.2025 62.1812 62.4811 62.4042 62.465C62.9351 62.4261 62.3876 60.4919 63.8166 60.3875C64.7421 60.3201 65.2274 61.0756 65.2867 61.8966C65.3208 62.3676 65.2507 62.9095 65.058 63.3389L63.9208 63.422Z" fill="#1C2D41"/>
<path d="M63.5257 53.6983C64.0193 53.8319 64.3339 54.1682 64.6385 54.9626C64.7714 55.3094 64.8326 55.5473 64.8404 55.5854L65.2288 54.1358L66.133 54.3808L65.36 57.2626L64.5505 57.0435L63.7914 55.3248C63.632 54.9647 63.5026 54.8042 63.3195 54.7549C63.0809 54.6901 62.8769 54.808 62.8157 55.0367C62.7451 55.2986 62.8906 55.5115 63.2221 55.607L62.9513 56.6163C62.0413 56.3695 61.6266 55.6536 61.8615 54.7781C62.0843 53.9476 62.7771 53.4955 63.5257 53.6983Z" fill="#D5699D"/>
<path fill-rule="evenodd" clip-rule="evenodd" d="M64.4813 53.1308C65.4527 53.6185 66.591 53.4995 67.0994 52.4767C67.6054 51.4593 67.0165 50.4732 66.0451 49.9858C65.0737 49.4978 63.9356 49.617 63.4297 50.6345C62.9218 51.657 63.5102 52.6431 64.4813 53.1308ZM64.9592 52.17C64.4814 51.93 64.1062 51.5095 64.319 51.0809C64.5297 50.6574 65.0899 50.7062 65.5677 50.946C66.0457 51.1863 66.4212 51.6068 66.2105 52.0303C65.9977 52.4589 65.4372 52.4101 64.9592 52.17Z" fill="#D5699D"/>
<path d="M67.7715 46.501C68.1736 46.8176 68.3325 47.2508 68.3037 48.1013C68.2911 48.473 68.2554 48.7157 68.2474 48.7538L69.1691 47.5723L69.9059 48.1531L68.0734 50.5021L67.4134 49.9821L67.3833 48.1024C67.3766 47.7083 67.32 47.5098 67.1708 47.3922C66.9764 47.239 66.7424 47.2673 66.5972 47.4539C66.4305 47.6673 66.4815 47.92 66.7491 48.1385L66.1078 48.9609C65.3662 48.3767 65.2629 47.5545 65.8198 46.8411C66.3475 46.1644 67.1611 46.0198 67.7715 46.501Z" fill="#D5699D"/>
<path fill-rule="evenodd" clip-rule="evenodd" d="M68.9536 46.2698C69.6553 47.1024 70.7483 47.4439 71.6163 46.7051C72.4801 45.9706 72.3257 44.831 71.6244 43.9981C70.9227 43.1654 69.83 42.8242 68.9663 43.559C68.0979 44.2978 68.2523 45.4368 68.9536 46.2698ZM69.7696 45.5759C69.4244 45.1659 69.2443 44.6308 69.6086 44.3214C69.968 44.0155 70.4637 44.282 70.8089 44.692C71.1544 45.1017 71.3342 45.6369 70.9745 45.9427C70.6106 46.2524 70.1145 45.9856 69.7696 45.5759Z" fill="#D5699D"/>
<path d="M59.8035 115.011L60.2086 107.56H60.8839L60.27 116.167H59.2756L58.6494 107.56H59.3738L59.8035 115.011Z" fill="#1C2D41"/>
<path d="M61.8154 116.167H62.5603V107.56H61.8154V116.167Z" fill="#1C2D41"/>
<path d="M64.647 115.528H64.941C65.0559 115.528 65.158 115.466 65.158 115.307V113.438C65.158 112.884 65.0045 112.638 64.8389 112.392L64.1747 111.409C63.8686 110.941 63.6768 110.536 63.6768 109.847V108.359C63.6768 107.806 64.0856 107.56 64.5708 107.56H65.0045C65.4899 107.56 65.8985 107.806 65.8985 108.359V110.425L65.1453 110.609V108.421C65.1453 108.261 65.0431 108.199 64.9282 108.199H64.647C64.5321 108.199 64.43 108.261 64.43 108.421V109.786C64.43 110.339 64.5832 110.597 64.7495 110.843L65.324 111.704C65.6942 112.269 65.9112 112.675 65.9112 113.388V115.368C65.9112 115.922 65.5027 116.167 65.0176 116.167H64.5708C64.0856 116.167 63.6768 115.922 63.6768 115.368V112.97L64.43 112.786V115.307C64.43 115.466 64.5321 115.528 64.647 115.528Z" fill="#1C2D41"/>
<path d="M67.2148 116.167H67.9597V107.56H67.2148V116.167Z" fill="#1C2D41"/>
<path fill-rule="evenodd" clip-rule="evenodd" d="M70.04 116.167C70.528 116.167 70.9386 115.922 70.9386 115.368V108.359C70.9386 107.806 70.528 107.56 70.04 107.56H69.603C69.115 107.56 68.7041 107.806 68.7041 108.359V115.368C68.7041 115.922 69.115 116.167 69.603 116.167H70.04ZM69.9626 115.528H69.6804C69.5648 115.528 69.4618 115.466 69.4618 115.307V108.421C69.4618 108.261 69.5648 108.199 69.6804 108.199H69.9626C70.0782 108.199 70.1809 108.261 70.1809 108.421V115.307C70.1809 115.466 70.0782 115.528 69.9626 115.528Z" fill="#1C2D41"/>
<path d="M73.6544 112.687V107.56H74.2911V116.167H73.5943L72.6933 109.933V116.167H72.0566V107.56H72.9336L73.6544 112.687Z" fill="#1C2D41"/>
<path d="M76.6926 110.671L77.1337 107.56H77.8514L77.1459 111.605L78.0151 116.167H77.2974L76.6548 112.565L76.1385 116.167H75.4082L76.1641 111.556L75.5089 107.56H76.2774L76.6926 110.671Z" fill="#1C2D41"/>
<path d="M104.642 109.355C103.282 112.014 102.429 113.953 102.429 116.363H101.12C101.12 114.176 102.022 112.643 104.35 109.539H99.9873V108.504H104.642V109.355Z" fill="#1C2D41"/>
<path d="M97.0076 104.762V106.446H96.8234L95.8923 105.087V106.446H95.7041V104.762H95.9034L96.8191 106.104V104.762H97.0076Z" fill="#1C2D41"/>
<path fill-rule="evenodd" clip-rule="evenodd" d="M97.5664 105.597C97.5664 106.06 97.9447 106.437 98.4046 106.437C98.8642 106.437 99.2423 106.06 99.2423 105.597C99.2423 105.131 98.8642 104.753 98.4046 104.753C97.9447 104.753 97.5664 105.131 97.5664 105.597ZM97.7529 105.596C97.7529 105.236 98.0422 104.94 98.4049 104.94C98.767 104.94 99.0563 105.236 99.0563 105.596C99.0563 105.954 98.767 106.25 98.4049 106.25C98.0422 106.25 97.7529 105.954 97.7529 105.596Z" fill="#1C2D41"/>
<path d="M99.7083 106.446C99.6564 106.446 99.6152 106.363 99.6152 106.257C99.6152 106.156 99.6564 106.072 99.7083 106.072C99.76 106.072 99.8014 106.156 99.8014 106.257C99.8014 106.363 99.76 106.446 99.7083 106.446Z" fill="#1C2D41"/>
<path d="M58.6494 102.508L107.901 102.601" stroke="#1C2D41" stroke-width="0.306897"/>
<path d="M93.9359 104.949V116.363" stroke="#1C2D41" stroke-width="0.306897"/>
</svg>
