<svg width="167" height="128" viewBox="0 0 167 128" fill="none" xmlns="http://www.w3.org/2000/svg">
<g clip-path="url(#clip0_281_69723)">
<rect width="165.724" height="127.26" transform="translate(0.413086 0.345825)" fill="white"/>
<rect x="0.413086" y="0.345825" width="165.724" height="127.26" fill="white"/>
<path fill-rule="evenodd" clip-rule="evenodd" d="M113.679 64.0953C113.679 80.8854 100.069 94.4956 83.2791 94.4956C66.4894 94.4956 52.8779 80.8854 52.8779 64.0953C52.8779 47.3048 66.4894 33.6941 83.2791 33.6941C100.069 33.6941 113.679 47.3048 113.679 64.0953Z" fill="#198679"/>
<path fill-rule="evenodd" clip-rule="evenodd" d="M108.277 64.0952C108.277 77.9011 97.0858 89.0921 83.2796 89.0921C69.4741 89.0921 58.2822 77.9011 58.2822 64.0952C58.2822 50.2885 69.4741 39.097 83.2796 39.097C97.0858 39.097 108.277 50.2885 108.277 64.0952Z" fill="#17A297"/>
<path fill-rule="evenodd" clip-rule="evenodd" d="M69.736 84.578L69.5011 81.4034H67.949L67.6196 84.578H66.3262L68.0906 68.9172H69.5719L71.2165 84.578H69.736ZM68.8198 72.7506L68.0902 80.0175H69.3837L68.8198 72.7506Z" fill="#FFFFFE"/>
<path fill-rule="evenodd" clip-rule="evenodd" d="M77.0242 84.578H75.7303L74.8612 74.7249L73.8263 84.578H72.5333L71.2402 68.9172H72.627L73.3333 79.9925L74.5089 68.9172H75.5662L76.5303 79.9925L77.4228 68.9172H78.695L77.0242 84.578Z" fill="#FFFFFE"/>
<path fill-rule="evenodd" clip-rule="evenodd" d="M81.9679 84.578L81.7322 81.4034H80.1805L79.8523 84.578H78.5576L80.3212 68.9172H81.8029L83.4487 84.578H81.9679ZM81.0503 72.7506L80.3211 80.0175H81.6145L81.0503 72.7506Z" fill="#FFFFFE"/>
<path fill-rule="evenodd" clip-rule="evenodd" d="M88.6149 84.6958C87.7916 84.6958 87.4401 84.3889 87.4401 83.237V78.6761C87.4401 78.0415 87.1115 77.6417 86.616 77.6417H85.7706V84.578H84.3359V68.9172H86.7097C87.6279 68.9172 88.7794 69.3882 88.7794 71.3867V75.0318C88.7794 75.9722 88.5437 76.6772 87.8166 77.0074C88.5437 77.3356 88.8269 78.0415 88.8269 78.9573V83.2137C88.8269 83.638 88.8739 83.8263 89.1329 83.8263V84.6958H88.6149ZM87.3704 71.2464C87.3704 70.6117 87.0869 70.3519 86.6863 70.3519H85.7705V76.2762H86.568C87.0394 76.2762 87.3704 75.8785 87.3704 75.243V71.2464Z" fill="#FFFFFE"/>
<path fill-rule="evenodd" clip-rule="evenodd" d="M92.4046 84.578H90.0518V68.9172H92.4046C93.9796 68.9172 94.6143 69.9059 94.6143 71.9989V81.4984C94.6143 83.5906 93.9796 84.578 92.4046 84.578ZM93.2022 71.7403C93.2022 70.7284 92.991 70.3519 92.4047 70.3519H91.4868V83.1442H92.4047C92.991 83.1442 93.2022 82.7677 93.2022 81.7807V71.7403Z" fill="#FFFFFE"/>
<path fill-rule="evenodd" clip-rule="evenodd" d="M97.8502 84.7662C96.3918 84.7662 95.5215 83.6839 95.5215 82.1093V79.9926H96.8866V82.1797C96.8866 82.9551 97.2614 83.5427 97.8023 83.5427C98.5311 83.5427 98.8143 83.0488 98.8143 82.1797C98.8143 80.6047 98.2721 79.1467 97.4267 77.3823C96.6738 75.8319 95.6389 73.4565 95.6389 71.8328C95.6389 70.0225 96.3456 68.7299 98.0143 68.7299C99.3074 68.7299 100.131 69.811 100.131 71.4093V73.6914H98.7901V71.4567C98.7901 70.5172 98.509 70.0704 97.9918 70.0704C97.3788 70.0704 97.0032 70.4698 97.0032 71.3168C97.0032 73.1496 97.5666 74.3735 98.5311 76.3957C99.4256 78.2993 100.178 80.1092 100.178 81.7566C100.178 84.2015 98.7901 84.7662 97.8502 84.7662Z" fill="#FFFFFE"/>
<path fill-rule="evenodd" clip-rule="evenodd" d="M70.4998 43.6437C71.0649 47.0838 74.2849 50.1127 76.4086 51.5944C78.3539 52.9513 81.8358 54.7035 81.5084 61.7253H85.2677C84.9387 54.7035 88.4205 52.9513 90.365 51.5944C93.1975 49.6188 97.9769 44.8926 95.8143 40.1083C94.477 42.838 91.7911 43.0516 89.6146 43.9097C88.0588 44.5231 83.3968 45.9753 83.3968 48.8569H83.3772C83.3772 45.9753 78.7161 44.5231 77.1615 43.9097C74.9834 43.0516 72.2999 42.838 70.9585 40.1083C70.4188 41.3048 70.312 42.4968 70.4998 43.6437Z" fill="#FFFFFE"/>
<path fill-rule="evenodd" clip-rule="evenodd" d="M71.4349 61.7252C71.3077 59.0306 72.6458 58.3583 73.3905 57.8374C74.4781 57.0796 76.3138 55.2644 75.4835 53.4283C74.9704 54.4759 73.9396 54.5573 73.1028 54.8871C72.5054 55.122 70.7172 55.6801 70.7172 56.7866H70.7094C70.7094 55.6801 68.9204 55.122 68.323 54.8871C67.4866 54.5573 66.4567 54.4759 65.9427 53.4283C65.1125 55.2644 66.9473 57.0796 68.0341 57.8374C68.7809 58.3583 70.1177 59.0306 69.9913 61.7252H71.4349Z" fill="#FFFFFE"/>
<path fill-rule="evenodd" clip-rule="evenodd" d="M96.5651 61.7252C96.4386 59.0306 97.7775 58.3583 98.5231 57.8374C99.6091 57.0796 101.443 55.2644 100.614 53.4283C100.101 54.4759 99.0706 54.5573 98.2346 54.8871C97.6367 55.122 95.8482 55.6801 95.8482 56.7866H95.8408C95.8408 55.6801 94.0506 55.122 93.4544 54.8871C92.6176 54.5573 91.5876 54.4759 91.0737 53.4283C90.243 55.2644 92.0791 57.0796 93.1659 57.8374C93.9123 58.3583 95.2487 59.0306 95.1222 61.7252H96.5651Z" fill="#FFFFFE"/>
<path fill-rule="evenodd" clip-rule="evenodd" d="M69.4041 67.3508C68.4634 67.3508 67.4649 67.1102 66.8994 66.7746L67.4518 65.8274C68.2047 66.1396 68.9348 66.2632 69.4287 66.2632C69.7703 66.2632 69.9745 66.1989 69.9745 66.0933C69.9745 65.7169 67.0647 65.998 67.0647 64.5052C67.0647 63.7585 67.8888 63.141 69.4925 63.141C70.5981 63.141 71.4922 63.4111 71.9096 63.6414L71.3159 64.5408C70.6636 64.3403 70.0523 64.2299 69.6345 64.2299C69.3521 64.2299 69.1758 64.2802 69.1758 64.3931C69.1758 64.8113 71.9636 64.459 71.9636 65.899C71.9636 66.78 71.169 67.3508 69.4041 67.3508Z" fill="#FFFFFE"/>
<path fill-rule="evenodd" clip-rule="evenodd" d="M75.6992 67.2043V65.8446H74.664V67.2043H72.6172V63.2871H74.664V64.7582H75.6992V63.2871H77.7518V67.2043H75.6992Z" fill="#FFFFFE"/>
<path fill-rule="evenodd" clip-rule="evenodd" d="M80.9086 67.3508C79.2264 67.3508 78.2451 66.4105 78.2451 65.2754V65.2046C78.2451 64.0641 79.2264 63.141 80.9086 63.141C82.5846 63.141 83.5671 64.0641 83.5671 65.2046V65.2754C83.5671 66.4105 82.5846 67.3508 80.9086 67.3508ZM81.4788 65.1931C81.4788 64.7581 81.3843 64.3583 80.9084 64.3583C80.4317 64.3583 80.3319 64.7581 80.3319 65.1931V65.2929C80.3319 65.7217 80.4317 66.1223 80.9084 66.1223C81.3843 66.1223 81.4788 65.7217 81.4788 65.2929V65.1931Z" fill="#FFFFFE"/>
<path fill-rule="evenodd" clip-rule="evenodd" d="M87.4399 67.2043C87.2042 67.2043 86.9689 66.9453 86.9689 66.5979V66.2395C86.9689 65.9624 86.91 65.8225 86.6109 65.8225H86.2679V67.2043H84.2285V63.2871H87.3744C88.4387 63.2871 89.0799 63.7515 89.0799 64.3817V64.4341C89.0799 64.8114 88.7219 65.1989 88.1445 65.3106C88.8266 65.3756 89.0157 65.7754 89.0157 66.2284V66.5517C89.0157 66.7992 89.0742 66.9817 89.2268 67.1446V67.2043H87.4399ZM87.0108 64.7524C87.0108 64.5462 86.8987 64.4697 86.5926 64.4697H86.2681V65.0921H86.5926C86.8987 65.0921 87.0108 64.964 87.0108 64.7696V64.7524Z" fill="#FFFFFE"/>
<path fill-rule="evenodd" clip-rule="evenodd" d="M93.0529 64.6522V67.2043H91.0077V64.6522H89.5596V63.2871H94.5002V64.6522H93.0529Z" fill="#FFFFFE"/>
<path fill-rule="evenodd" clip-rule="evenodd" d="M98.7282 65.8749V67.2043H96.6806V65.8749L94.8408 63.2871H97.1049L97.857 64.4288L98.58 63.2871H100.616L98.7282 65.8749Z" fill="#FFFFFE"/>
</g>
<defs>
<clipPath id="clip0_281_69723">
<rect width="165.724" height="127.26" fill="white" transform="translate(0.413086 0.345825)"/>
</clipPath>
</defs>
</svg>
