<svg width="21" height="20" viewBox="0 0 21 20" fill="none" xmlns="http://www.w3.org/2000/svg">
<path d="M2.5918 5C2.5918 4.46957 2.80251 3.96086 3.17758 3.58579C3.55266 3.21071 4.06136 3 4.5918 3H11.5918C12.1222 3 12.6309 3.21071 13.006 3.58579C13.3811 3.96086 13.5918 4.46957 13.5918 5V9C13.5918 9.53043 13.3811 10.0391 13.006 10.4142C12.6309 10.7893 12.1222 11 11.5918 11H9.5918L6.5918 14V11H4.5918C4.06136 11 3.55266 10.7893 3.17758 10.4142C2.80251 10.0391 2.5918 9.53043 2.5918 9V5Z" fill="#111928"/>
<path d="M15.5913 7V9C15.5913 10.0609 15.1699 11.0783 14.4197 11.8284C13.6696 12.5786 12.6522 13 11.5913 13H10.4193L8.65332 14.767C8.93332 14.916 9.25232 15 9.59132 15H11.5913L14.5913 18V15H16.5913C17.1218 15 17.6305 14.7893 18.0055 14.4142C18.3806 14.0391 18.5913 13.5304 18.5913 13V9C18.5913 8.46957 18.3806 7.96086 18.0055 7.58579C17.6305 7.21071 17.1218 7 16.5913 7H15.5913Z" fill="#111928"/>
</svg>
