<svg width="21" height="20" viewBox="0 0 21 20" fill="none" xmlns="http://www.w3.org/2000/svg">
<path fill-rule="evenodd" clip-rule="evenodd" d="M6.5918 2C6.06136 2 5.55266 2.21071 5.17758 2.58579C4.80251 2.96086 4.5918 3.46957 4.5918 4V16C4.5918 16.5304 4.80251 17.0391 5.17758 17.4142C5.55266 17.7893 6.06136 18 6.5918 18H14.5918C15.1222 18 15.6309 17.7893 16.006 17.4142C16.3811 17.0391 16.5918 16.5304 16.5918 16V7.414C16.5917 6.88361 16.3809 6.37499 16.0058 6L12.5918 2.586C12.2168 2.2109 11.7082 2.00011 11.1778 2H6.5918ZM11.5918 8C11.5918 7.73478 11.4864 7.48043 11.2989 7.29289C11.1114 7.10536 10.857 7 10.5918 7C10.3266 7 10.0722 7.10536 9.88469 7.29289C9.69715 7.48043 9.5918 7.73478 9.5918 8V11.586L8.2988 10.293C8.20655 10.1975 8.09621 10.1213 7.9742 10.0689C7.8522 10.0165 7.72098 9.9889 7.5882 9.98775C7.45542 9.9866 7.32374 10.0119 7.20084 10.0622C7.07795 10.1125 6.96629 10.1867 6.8724 10.2806C6.77851 10.3745 6.70426 10.4861 6.65398 10.609C6.60369 10.7319 6.57839 10.8636 6.57955 10.9964C6.5807 11.1292 6.60829 11.2604 6.6607 11.3824C6.7131 11.5044 6.78929 11.6148 6.8848 11.707L9.8848 14.707C10.0723 14.8945 10.3266 14.9998 10.5918 14.9998C10.857 14.9998 11.1113 14.8945 11.2988 14.707L14.2988 11.707C14.481 11.5184 14.5817 11.2658 14.5795 11.0036C14.5772 10.7414 14.472 10.4906 14.2866 10.3052C14.1012 10.1198 13.8504 10.0146 13.5882 10.0123C13.326 10.01 13.0734 10.1108 12.8848 10.293L11.5918 11.586V8Z" fill="white"/>
</svg>
