<svg width="20" height="20" viewBox="0 0 20 20" fill="none" xmlns="http://www.w3.org/2000/svg">
<g clip-path="url(#clip0_425_59656)">
<path d="M10 0C4.48617 0 0 4.48617 0 10C0 15.5138 4.48617 20 10 20C15.5138 20 20 15.5138 20 10C20 4.48617 15.5138 0 10 0ZM16.6232 4.95756C17.5537 6.17685 18.1556 7.65916 18.2958 9.27203C16.6662 9.04437 14.9338 9.07974 13.2707 9.44244C12.9666 8.75434 12.6431 8.06302 12.301 7.37042C12.4244 7.31833 12.5473 7.26559 12.6695 7.21158C14.1209 6.57042 15.4444 5.81479 16.6232 4.95691V4.95756ZM15.1428 3.45402C13.919 4.30868 12.6154 4.98264 11.3395 5.5119L9.0836 1.72283C9.38457 1.68939 9.69068 1.67203 10 1.67203C11.9395 1.67203 13.726 2.33826 15.1428 3.45402ZM6.93569 2.25595C7.54534 3.17492 8.50932 4.67974 9.36206 6.23473C8.49968 6.51061 7.68103 6.72412 6.94534 6.88875C4.71447 7.38778 2.86302 7.53248 2.03215 7.57363C2.77299 5.14598 4.59486 3.18521 6.93505 2.25595H6.93569ZM1.6791 9.67074C2.1865 9.65981 4.44502 9.57685 7.3492 8.93183C8.38328 8.70225 9.38328 8.42637 10.3421 8.1074C10.6379 8.70161 10.9447 9.34405 11.2502 10.027C9.66174 10.5987 8.07653 11.4341 6.52926 12.5145C5.25466 13.4045 4.20064 14.3248 3.41093 15.0862C2.32154 13.6785 1.67203 11.9132 1.67203 9.99936C1.67203 9.88939 1.6746 9.77942 1.6791 9.6701V9.67074ZM4.88039 16.5633C5.60064 15.8701 6.56334 15.0309 7.72154 14.2219C9.1717 13.209 10.6199 12.4489 12.0592 11.9415C12.7125 13.5878 13.335 15.5164 13.7775 17.4206C12.6431 18.0006 11.3588 18.328 10 18.328C8.07138 18.328 6.29389 17.6688 4.88039 16.564V16.5633ZM15.6225 16.1376C15.2476 14.663 14.7576 13.1383 14.1582 11.5839C14.1338 11.5209 14.1093 11.4579 14.0842 11.3955C15.3389 11.1608 16.9305 11.1871 18.2167 11.3563C17.9074 13.2354 16.9678 14.9048 15.6219 16.1383L15.6225 16.1376Z" fill="#171717"/>
</g>
<defs>
<clipPath id="clip0_425_59656">
<rect width="20" height="20" fill="white"/>
</clipPath>
</defs>
</svg>
