<svg width="20" height="20" viewBox="0 0 20 20" fill="none" xmlns="http://www.w3.org/2000/svg">
<g clip-path="url(#clip0_425_59646)">
<path d="M14.6545 1.50116C15.6814 1.50116 16.6467 1.90106 17.3728 2.62719C18.0989 3.35332 18.4988 4.31859 18.4988 5.34548V14.6545C18.4988 15.6814 18.0989 16.6467 17.3728 17.3728C16.6467 18.0989 15.6814 18.4988 14.6545 18.4988H5.34548C4.31859 18.4988 3.35332 18.0989 2.62719 17.3728C1.90106 16.6467 1.50116 15.6814 1.50116 14.6545V5.34548C1.50116 4.31859 1.90106 3.35332 2.62719 2.62719C3.35332 1.90106 4.31859 1.50116 5.34548 1.50116H14.6545ZM14.6545 0H5.34548C2.39341 0 0 2.39341 0 5.34548V14.6545C0 17.6066 2.39341 20 5.34548 20H14.6545C17.6066 20 20 17.6066 20 14.6545V5.34548C20 2.39341 17.6066 0 14.6545 0Z" fill="#171717"/>
<path d="M9.99965 6.12591C11.0346 6.12591 12.0072 6.52917 12.7387 7.26065C13.4702 7.99214 13.8734 8.96545 13.8734 9.99971C13.8734 11.034 13.4702 12.0073 12.7387 12.7388C12.0072 13.4703 11.0339 13.8735 9.99965 13.8735C8.96538 13.8735 7.99208 13.4703 7.26059 12.7388C6.5291 12.0073 6.12585 11.034 6.12585 9.99971C6.12585 8.96545 6.5291 7.99214 7.26059 7.26065C7.99208 6.52917 8.96538 6.12591 9.99965 6.12591ZM9.99965 4.62476C7.03083 4.62476 4.62402 7.03156 4.62402 10.0004C4.62402 12.9692 7.03083 15.376 9.99965 15.376C12.9685 15.376 15.3753 12.9692 15.3753 10.0004C15.3753 7.03156 12.9685 4.62476 9.99965 4.62476Z" fill="#171717"/>
<path d="M15.6361 5.61481C16.1752 5.61481 16.6121 5.17785 16.6121 4.63883C16.6121 4.09981 16.1752 3.66284 15.6361 3.66284C15.0971 3.66284 14.6602 4.09981 14.6602 4.63883C14.6602 5.17785 15.0971 5.61481 15.6361 5.61481Z" fill="#171717"/>
</g>
<defs>
<clipPath id="clip0_425_59646">
<rect width="20" height="20" fill="white"/>
</clipPath>
</defs>
</svg>
