<svg width="22" height="20" viewBox="0 0 22 20" fill="none" xmlns="http://www.w3.org/2000/svg">
<g clip-path="url(#clip0_425_59653)">
<path d="M5.03377 2.40942C5.03377 3.08769 4.78829 3.65949 4.29733 4.12284C3.80638 4.58717 3.2129 4.81885 2.51688 4.81885C1.82087 4.81885 1.22739 4.58224 0.736432 4.10904C0.245477 3.63681 0 3.06995 0 2.40942C0 1.7489 0.245477 1.20471 0.736432 0.72263C1.22739 0.240548 1.82087 0 2.51688 0C3.2129 0 3.80638 0.236605 4.29733 0.709814C4.78829 1.18302 5.03377 1.74989 5.03377 2.41041V2.40942ZM4.71238 20H0.321388V6.66634H4.71238V20Z" fill="#171717"/>
<path d="M21.3654 20H16.9477V12.7175C16.9477 10.8434 16.2872 9.90589 14.9662 9.90589C14.2169 9.90589 13.6363 10.1829 13.2261 10.736C12.815 11.289 12.61 11.9673 12.61 12.7708V20H8.19238V6.66637H12.4493V8.51386H12.5025C12.8239 7.88883 13.3454 7.36238 14.0691 6.93452C14.7917 6.50568 15.5991 6.29175 16.4923 6.29175C18.1525 6.29175 19.3789 6.82312 20.1735 7.88489C20.9671 8.94665 21.3654 10.2371 21.3654 11.7534V20Z" fill="#171717"/>
</g>
<defs>
<clipPath id="clip0_425_59653">
<rect width="21.3654" height="20" fill="white"/>
</clipPath>
</defs>
</svg>
