<?xml version="1.0" encoding="utf-8"?>
<!-- Generator: Adobe Illustrator 27.5.0, SVG Export Plug-In . SVG Version: 6.00 Build 0)  -->
<svg version="1.1" id="Layer_1" xmlns="http://www.w3.org/2000/svg" xmlns:xlink="http://www.w3.org/1999/xlink" x="0px" y="0px"
	 viewBox="0 0 176 135" style="enable-background:new 0 0 176 135;" xml:space="preserve">
<style type="text/css">
	.st0{clip-path:url(#SVGID_00000109710954946597983120000006682477251453690803_);}
	.st1{fill-rule:evenodd;clip-rule:evenodd;fill:#1B1A19;}
</style>
<g>
	<defs>
		<rect id="SVGID_1_" x="0.2" width="175.3" height="134.6"/>
	</defs>
	<clipPath id="SVGID_00000082336970555824669140000017193355725753386626_">
		<use xlink:href="#SVGID_1_"  style="overflow:visible;"/>
	</clipPath>
	<g style="clip-path:url(#SVGID_00000082336970555824669140000017193355725753386626_);">
		<path class="st1" d="M64.6,56.6c-4.3,5-8.4,11.2-8.4,15.9c0,1.8,0.5,3.3,1.9,4.4c1.9,1.7,4.1,2.3,6.2,2.3c3.1,0,6.2-1.2,8.6-2.2
			c4-1.6,48.8-21.1,48.8-21.1c0.4-0.2,0.3-0.5-0.2-0.4c-0.2,0.1-48.7,13.2-48.7,13.2c-0.9,0.3-1.9,0.4-2.8,0.4c-3.7,0-7-2-7-6.4
			C62.9,61,63.4,59,64.6,56.6"/>
	</g>
</g>
</svg>
