<?xml version="1.0" encoding="utf-8"?>
<!-- Generator: Adobe Illustrator 27.5.0, SVG Export Plug-In . SVG Version: 6.00 Build 0)  -->
<svg version="1.1" id="Layer_1" xmlns="http://www.w3.org/2000/svg" xmlns:xlink="http://www.w3.org/1999/xlink" x="0px" y="0px"
	 viewBox="0 0 2560 1440" style="enable-background:new 0 0 2560 1440;" xml:space="preserve">
<style type="text/css">
	.st0{clip-path:url(#SVGID_00000078022299479994689690000010018627498031670659_);}
	.st1{fill:url(#SVGID_00000049936024234549472760000002895027532152848013_);}
	.st2{fill:url(#SVGID_00000144333216950084234360000006024615840544314524_);}
	.st3{fill:#E5C3EC;}
	.st4{fill:#E47EF7;}
	.st5{fill:#D071F4;}
	.st6{fill:url(#SVGID_00000155110030407632517270000010311318934491697304_);}
	.st7{fill:url(#SVGID_00000151514283210335426960000017296009207937483137_);}
	.st8{fill:url(#SVGID_00000008116535017262017820000011859005194970358402_);}
	.st9{fill:url(#SVGID_00000175293387518198261980000018275019676669856391_);}
	.st10{fill:url(#SVGID_00000150082360754094167080000011775511763048899721_);}
	.st11{fill:url(#SVGID_00000086691414349860092790000018079913211989235390_);}
	.st12{fill:url(#SVGID_00000021801359175573549630000000652421888963659145_);}
	.st13{opacity:0.15;fill:url(#SVGID_00000126296477976699126190000010273833367585833635_);enable-background:new    ;}
	.st14{fill:url(#SVGID_00000029733083322978677310000006459437706235336842_);}
	.st15{fill:url(#SVGID_00000168833922162276757620000010996286606014478006_);}
	.st16{fill:url(#SVGID_00000019646066145488465350000017025041071025045669_);stroke:#090909;stroke-miterlimit:10;}
	.st17{fill:url(#SVGID_00000029726024373669497160000018028773144180349834_);}
	.st18{fill:#5B1C75;}
	.st19{fill:#701594;}
	.st20{fill:url(#SVGID_00000062191494312374570790000007058384670343275395_);}
	.st21{fill:#2B0D31;}
	.st22{fill:none;}
	.st23{fill:#62177E;}
	.st24{fill:#53186B;}
	.st25{fill:#650475;}
	.st26{fill:#5A0C6C;}
	.st27{fill:#420A51;}
	.st28{fill:#311036;}
	.st29{fill:url(#SVGID_00000061441430705223351410000012756499511304934535_);stroke:#090909;stroke-miterlimit:10;}
	.st30{fill:#070C19;}
	.st31{fill:#1E1A1F;}
	.st32{fill:none;stroke:#090909;stroke-miterlimit:10;}
	.st33{fill:#75009C;}
</style>
<g>
	<defs>
		<rect id="SVGID_1_" width="2560" height="1440"/>
	</defs>
	<clipPath id="SVGID_00000156589723944704585330000015352701587419291014_">
		<use xlink:href="#SVGID_1_"  style="overflow:visible;"/>
	</clipPath>
	<g id="Layer_4" style="clip-path:url(#SVGID_00000156589723944704585330000015352701587419291014_);">
		
			<linearGradient id="SVGID_00000093141316924455795920000018212845304532847531_" gradientUnits="userSpaceOnUse" x1="1374.05" y1="1141.1277" x2="1374.05" y2="1414.2194" gradientTransform="matrix(1 0 0 -1 0 1440)">
			<stop  offset="2.131116e-07" style="stop-color:#DA74F4"/>
			<stop  offset="1" style="stop-color:#D048FA"/>
		</linearGradient>
		
			<rect x="-30.7" y="-21.5" style="fill:url(#SVGID_00000093141316924455795920000018212845304532847531_);" width="2809.5" height="936.4"/>
		
			<linearGradient id="SVGID_00000166656430103064698790000015759952965527732663_" gradientUnits="userSpaceOnUse" x1="1514.9036" y1="1231.0994" x2="1514.9036" y2="1485.1208" gradientTransform="matrix(1 0 0 -1 0 1440)">
			<stop  offset="2.131116e-07" style="stop-color:#DA74F4"/>
			<stop  offset="1" style="stop-color:#D048FA"/>
		</linearGradient>
		<path style="fill:url(#SVGID_00000166656430103064698790000015759952965527732663_);" d="M2405.1,66.4
			c-39.7,19.9-100.4,28.2-148.9,35.9c-65.9,10.5-137,17.8-200.3,33c30.8-8.4,58.7-16.6,94.2-16.8c-22.7,17.5-75.7,19.2-107.8,27
			c57.2-1.4,114.5-7,173.3-5.9c-18.2,12.6-58,16.7-83.8,20.5c-118.1,17.1-241.1,15.7-361.1,24.1c-87.4,6.1-172.3,20.6-257.3,33.5
			c-16.7,2.5-39.8,4.2-53.2,11.2c90.1-16.8,193.2-13.3,286.3-16.8c95.8-3.6,192.2-5.7,288-8.1c-18.1,12.1-55.1,13.2-78.5,21.1
			c28.7-0.9,57.8-4.8,86.5-3.8c-14.7,9.1-37.1,12.4-56.9,15.4c-73.2,10.9-153.9,12.5-228.7,14.2c-86.7,2-173.5,2-260.3,2.9
			c-38.9,0.4-94.6-5-130.2,7.3c9.5,2,22.1,1.4,32.4-0.2c-9.9,5.5-24,8.7-36.7,11.4c-85.6,18-189.6,12.6-277.5,13.2
			c-130.4,0.9-260.5,2.2-390.4,9.9c-37.3,2.2-94.2,0.4-127.7,12.5c33.2,2.1,77.3-3.8,107.5,3.7c-8.9,6.1-21.5,8.5-34.2,10.7
			c-51.9,9-110.7,6.4-164.1,7c-78,0.9-158.6,0.7-236.1,7.4c-6.3,0.5-38,2.1-40.5,8c-4.1,9.9,127.4,6,130.3,6.1
			c169.3,2.3,337.9-8.2,507.1-6.9c-8.8,1-14.1,4.9-22,7.6c-39.6,13.6-89.9,18.4-133.9,22.6c-122.9,11.6-246.8,15.1-369.7,25.9
			c6.4,1.2,18.1,0.9,25.7,0.9c49.6-0.1,99.2,0,148.8,0c330.5,0.2,659.9-6.8,990.2-12.8c254.6-4.6,510.5-5.8,764.4-18.8
			c65.6-3.3,135.8-4.9,199.8-14.6c-24.2,7.2-54.3,11-80,15.3c-27,4.5-64.1,5.4-85.2,17.4c97.9-5.7,194-18.3,289.2-33.2
			c59.4-9.3,118.9-18.6,177.7-29.3c27.8-5,64.4-9.3,89.3-19.4c-19.7-3.8-50.3-3.1-71-3.4c-68.3-1.2-136.7-2-204.9-2.5
			c-134-1.1-273-7.4-406.3,1.2c83.6-7.6,167.8-15.8,251.1-24.5c75.1-7.8,149.3-17.7,222.8-29.6c19.5-3.1,46.8-5.8,62.7-13.7
			c16.1-8,31.8-19.4,49.4-27.7c26.3-12.4,79.7-30,90.1-49.7c-42.7-4.3-88.5-2.3-131.7-3.2c-60.4-1.2-120.6-1.8-181-1.7
			c86.8-39.2,221.1-33.1,300.6-79.2c-117.8-3.8-234.8-8.4-352.6-10.1c4.6-4.5,8.6-9.5,8.5-14.8C2444.1,48.6,2425.6,64.2,2405.1,66.4
			z"/>
		<circle class="st3" cx="849.2" cy="211.8" r="165"/>
		<path class="st4" d="M-137.9,76.2c22.7-25.3,54.2-47.4,86.2-59.6c107.2-40.8,277.3-7,371.3,53.2c40.7,26.1,46.9,96.7,25.5,137.3
			c55-5,106.8,57.6,118.9,105.4c10.2,40.2,17.7,79-18.5,103.2c44.7,14.4,87,34.8,126.4,60.7c20.1,13.2,50.5,34.3,61.9,55.3
			c-19.2-76.2,217.9-50.5,247.4-19c31.8-22.1,79.1,9.7,112.3,4.1c-2-22.9-5.1-43.4,12.6-61.2c18.2-18.3,50-25.5,75.1-26.1
			c2.4-60.5,58.9-41.1,98-46.7c18.8-2.7,33.6-16.2,54.9-16.8c32-0.9,53.1,14.1,77.9,30.9c17.3-16.8,57.1-5.8,78.1-4.1
			c21.7,1.8,41.1,0.7,61,0.1s30.2,1.8,48.2,10.2c19.1,8.8,22.7,8,45.1,6.5c26.9-1.9,48.7,10.2,64,32.3c13.1-25.4,59.5-27.4,83-26.7
			c41,1.3,94.1,8.5,129.3,30.2c10.6-19.5,45.2-17.4,63.6-18c20.2-0.7,41-0.9,61.2,0.5c11.8,0.8,31.8,8.1,43.2,5.9
			c8.8-1.8,20.3-12.4,30.2-16.5c18.3-7.5,37.3-8.7,56.8-8.1c17.9,0.6,20.7,0.3,32.5-4.7c11.2-4.8,18.9-8.9,31.2-11.6
			c62.1-13.2,140.7-14.4,202.8-4.4c32.2,5.2,51.7,15.7,78.4,31c12.3,7,19.3,8.4,36.4,11.9c55.6,11.6,107.7,31,157,59
			c20.2,11.5,76.6,36.9,83.9,64.4c4.2,16-13.8,53.3-17.6,70.8c-14,63.2-53.1,94.4-115.1,112.8c-65.7,19.5-134.4,16.3-202.3,16.1
			c-117.3-0.2-234.7-2.7-352-2.4c-174.8,0.5-347.4,0.7-521.9-7.9c-110.4-5.4-220.4-17.7-330.1-30.8
			c-96.6-11.6-194.5-10.2-291.6-10.1c-169.1,0.2-337.8-12.3-507-12.2c-24.8,0-36.8-6.7-60.9-11.4c-70-13.6-141.1-24.3-210.6-40
			c-67.2-15.2-162-30.5-212.2-82.9c-32.3-33.6-41-73.6-42.7-118.8c-1.9-51.4,17-99.3,16-150.6c-0.8-42.3-31.4-95.7-12.4-135.6
			C-149.8,125.2-137.9,107.5-137.9,76.2z"/>
		<path class="st4" d="M1143.4,412.3c23.9-5.8,48.8-10,72.9-15.5c27-6.2,53.8-12.6,80.1-21.7c10.9-3.8,20.8-7.8,29.7-15.4
			c-6.5,15.5-25.9,14.9-39.8,15.8c-11.2,0.7-23.6-0.9-34.5,2.1c-5.5,1.5-10.3,5.1-15.7,6.6c12.3-2.5,25.2-8.7,37.5-12.2
			c27.2-7.5,53.3-19.3,80.6-26.9c9.2-2.6,18.1-4.3,25.6-9.4c5.4-3.6,10.1-8.9,16.1-11.4c-8.8,4.3-15.7,10.6-25.1,13.9
			c-10.3,3.6-23.4,4-32.9,8.7c6.1-0.5,11.8-4.2,17.8-5.9c14.8-4.3,30.2-6.6,45.1-10.7c42.3-11.6,82.4-26.7,125.8-33.7
			c9.6-1.6,17.5-4.7,26.5-7.6c21.2-6.9,43.3-10.2,62.8-22.4c-1.5,4.2-8.8,9.1-12.4,12c-11.1,9-24.1,13.9-37.3,17.9
			c-32.9,10-67.4,12.5-99.3,25.8c-14,5.8-34.3,7.8-45.2,19.1c77.8-16.7,157.1-37,230.9-68.7c38.8-16.7,79.5-24.9,118.6-39.9
			c8.4-3.2,19-4.7,26.6-9c-33.6,46.3-101.3,39.9-144.2,69.4c15,1.9,34-11.5,50.3-12.3c-20.9,16.3-41.2,24-66.3,30.6
			c-75.9,20-154.4,23.9-229.6,47.1c-34.3,10.6-68.1,23.9-103.3,30.3c-12.9,2.3-27.7,4.5-39.3,10.3c17.9,1.4,36.3-1.7,54.2-2.7
			c-19.6,8.9-42.5,13.3-63.2,18.3c-28.2,6.8-55.9,15.1-84,21.9c-18.1,4.4-35.7,10.8-53.9,15c-8.9,2-20.2,1.7-28.2,6.4
			c5.1,0.2,10-3.8,14.6-5.5c12.5-4.8,26-6.2,38.6-10.6c5.3-1.9,13.8-2.7,12.2-9.4c-0.1-0.6-5.2-4.1-6.1-5.7
			C1148.2,424.8,1148.1,421.2,1143.4,412.3z"/>
		<path class="st4" d="M567.4,290.8c13.5-6.9,32.6-9.2,47.5-13.9c17.2-5.4,35-8,52.1-13.4c5.6-1.8,11.4-4.3,17.3-5.3
			c-3.8,0.2-5.9,2.2-9.1,3.7c-7.8,3.8-15.7,6.3-24,9.1c-9.7,3.3-19.5,6.4-29.5,8.9c-3.8,1-8.7,0.8-11,3.6c7.5-4,17.1-7.1,25.7-9.3
			c22.2-5.6,45.2-9.4,67.6-13.9c18.7-3.8,37.8-7.9,56.2-12.8c4.3-1.1,10.6-2.1,14-4.8c-15.6,4.7-34.3,10-48.5,16.5
			c9.3-0.9,18.7-4.2,27.7-6.7c20.5-5.5,41-10.1,61.8-14.3c23.9-4.8,48.7-11.6,72.9-14.5c-3,10.5-29.2,16.2-38.1,18.9
			c-57.5,17.5-118.6,24.2-177.6,34.9c-40.4,7.4-80.9,17.4-120.7,26.7c22.6-1.5,45.3-6.8,67.7-10.4c30.6-5,60.4-10.2,90.3-17.8
			c39.9-10.1,81.2-17.9,122.2-22.8c-2.1,2.5-7.1,3.3-10.5,4.4c-13.8,4.4-28.1,7.9-42.2,11.3c-17,4.1-34.2,7.1-51.4,10.3
			c-10.1,1.9-22.2,3.6-31,8.8c7.1,2,17.6-2,25.3-2.8c-12,5.8-26.5,8-39.6,10.6c-49.3,9.6-99.4,15.2-148.9,23
			c-33.8,5.4-66.8,11.8-100,19.7c-15.7,3.7-30.7,9.4-46.5,13.1c-22.8,5.3-46,9-68.6,14.6c-7.2,1.8-16.7,1.9-23,5.6
			c30.3-5.5,60-13.2,90-20.1c28.3-6.5,56.5-12.8,84.5-20.1c13.9-3.6,29.6-5.9,42.4-12.4c-9.9,1.4-21.5,5.7-30.8,9.3
			c5.2-0.7,10.2-3.1,15-5c12.5-4.8,25.2-8.7,38.1-12.4c13.3-3.8,26.8-7.2,40.2-10.8c5.4-1.5,13.1-2.8,17.9-5.9
			c-23.5,13-52.6,15-79.2,18.9c-24.9,3.6-49.6,8.4-74.5,12.3c24.3-10.6,52.6-15,78.4-21.5C532.6,300.5,546.8,296,567.4,290.8z"/>
		<path class="st5" d="M68.1,458.9c17.2,4.8,187.2-4.8,191.8,0s34.7,6.1,49.5,13.1s7.1,5.5,32.4,11.1c25.3,5.5,32.9,5.1,54.4,11.5
			c21.4,6.5,38.3-0.9,53.6,11.1s17.2,20.3,31.6,13.4c14.4-6.9,18.8-10.2,38.8-13.4c20-3.2,27.7-14.8,46-11.1
			c18.4,3.7,29.1,0.1,44.4-5s23-19,33.7-19s19.9-4.2,33.7-2.8s33.7,6.9,52.1,11.1c18.4,4.2,41.4,8.8,56.7,10.7s26-1.4,49,5
			c23,6.5,62.8,11.1,62.8,11.1s20,17.5,39.9,23.1c19.9,5.5,32.2-11.1,53.6-9.7c21.4,1.4,72-17.1,85.8-13.4s33.7,4.6,42.9,0
			c9.2-4.6,36.8-9.6,44.4-12c7.7-2.3,19.9,6.9,41.4,12c21.4,5.1,68.9,5.1,87.3,13.4s46,12.5,61.3,9.7s59.7-16.6,67.4-16.6
			c7.7,0,24.5-11.9,46-18.4s46-19,70.5-17.6s81.2,16.7,110.3,17.6c29.1,0.9,179.2,7.3,194.6,10.1c15.3,2.8,180.8,9.7,203.7,4.2
			c23-5.5,82.7-30.5,110.3-30.5s72-16.4,102.6-20s73.5-18.8,96.5-20.2c23-1.4,44.4-12.5,140.9-5.5c96.5,6.9,196.1,8.3,196.1,15.2
			c0,6.9-108.1,198.5-122.6,207.6s-376.9,200.7-393.7,204.9S246.1,879.1,240,872.8S68.1,458.9,68.1,458.9z"/>
		
			<linearGradient id="SVGID_00000096029196088033804540000009720782858206947723_" gradientUnits="userSpaceOnUse" x1="1580.9862" y1="526.884" x2="2101.8379" y2="922.1185" gradientTransform="matrix(1 0 0 -1 0 1440)">
			<stop  offset="1.843568e-02" style="stop-color:#CB55EF"/>
			<stop  offset="1" style="stop-color:#B459DC"/>
		</linearGradient>
		<path style="fill:url(#SVGID_00000096029196088033804540000009720782858206947723_);" d="M2614.4,449c0,0-205.3,690.9-212.9,700.1
			c-3.6,4.4-441.9,1.7-898.7-4.3c-503.5-6.6-1029.6-17.4-1021.3-27.3c5.3-6.3,32.4-53,66.2-112.5c28.9-50.8,62.6-110.8,91.9-163
			c39.4-70.4,70.6-126.6,70.6-126.6c4.6-4.4,143.5-105.5,143.5-105.5l155.2-19.9c0,0,52.1-16.9,58.2-19.9c6.1-3.1,32.2-16.8,39.8-23
			c7.7-6.1,30.6-29.9,30.6-29.9s119.5,99.4,124.1,99.1c4.6-0.3,68.9,28.8,68.9,28.8l52.1-28.8l78.1-17.1l73.5-55.2
			c0,0,47.5-21.5,62.8-26.8c15.3-5.4,72-58,81.2-63.1s58.2-34.2,73.5-51.1c15.3-16.8,64.3-98.2,73.5-103.5s33.7-29.8,52.1-51.2
			c18.4-21.5,41.4-52.1,41.4-52.1l45.9,65.9c0,0,98.1,72,99.6,78.1s42.9,55.2,47.5,56.7s134.8,44.4,134.8,44.4s41.4,35.2,53.6,30.6
			c12.3-4.6,174.6-27.6,185.4-29.1C2496.5,441.3,2614.4,449,2614.4,449z"/>
		
			<linearGradient id="SVGID_00000013903420145330286060000009105404489297116333_" gradientUnits="userSpaceOnUse" x1="1547.9" y1="580.4468" x2="1547.9" y2="855.3903" gradientTransform="matrix(1 0 0 -1 0 1440)">
			<stop  offset="1.843568e-02" style="stop-color:#CB55EF"/>
			<stop  offset="1" style="stop-color:#B459DC"/>
		</linearGradient>
		<path style="fill:url(#SVGID_00000013903420145330286060000009105404489297116333_);" d="M2614.4,449c0,0-205.3,690.9-212.9,700.1
			c-3.6,4.4-441.9,1.7-898.7-4.3c-411.6-54.6-803.2-115.7-955.1-139.8c-42.6-6.8-66.3-10.6-66.3-10.6l120.1-150.1
			c0,0,14.6-0.9,38.1-2.3c93.7-5.7,328.3-20.4,335.6-25.3c9.2-6.1,542.3-40.4,542.3-40.4l119.5-148l147.1-56.7H1919
			c0,0,85.8-88.8,104.2-90.4c18.4-1.5,0-30.6,0-30.6l104.2,30.6c0,0-58.2-62.8-79.7-69.7s9.2-32.9,0-39.1
			c-9.2-6.1-85.8-79.7-85.8-79.7l-42.9-96.5l45.9,65.9c0,0,98.1,72,99.6,78.1s42.9,55.2,47.5,56.7s134.8,44.4,134.8,44.4
			s41.4,35.2,53.6,30.6c12.3-4.6,174.6-27.6,185.4-29.1C2496.5,441.3,2614.4,449,2614.4,449z"/>
		
			<linearGradient id="SVGID_00000162317918581284366510000018167745762226044860_" gradientUnits="userSpaceOnUse" x1="636.55" y1="724.2778" x2="636.55" y2="784.3358" gradientTransform="matrix(1 0 0 -1 0 1440)">
			<stop  offset="2.131116e-07" style="stop-color:#AA56D1"/>
			<stop  offset="1" style="stop-color:#A850D2"/>
		</linearGradient>
		<polygon style="fill:url(#SVGID_00000162317918581284366510000018167745762226044860_);" points="556.9,583.1 556.9,490.2 
			567.7,474.6 567.7,319.6 573.4,327.9 573.4,521.8 581.6,533.7 581.6,618.4 655.6,725.4 705.3,662.8 705.3,554 720.1,532.6 
			720.1,364.6 734.2,385 734.2,758.7 538.9,758.7 		"/>
		
			<linearGradient id="SVGID_00000029734454325218333070000015790580450354247556_" gradientUnits="userSpaceOnUse" x1="623.7" y1="742.122" x2="623.7" y2="806.8026" gradientTransform="matrix(1 0 0 -1 0 1440)">
			<stop  offset="2.131116e-07" style="stop-color:#AA56D1"/>
			<stop  offset="1" style="stop-color:#A850D2"/>
		</linearGradient>
		<polygon style="fill:url(#SVGID_00000029734454325218333070000015790580450354247556_);" points="613.8,599 613.8,490 
			620.5,481.7 620.5,271.3 625.6,280.5 625.6,336.6 633.3,350.4 633.3,650.3 651.2,650.3 651.2,586.3 662.1,586.3 684.2,626 
			684.2,744.1 563.2,744.1 563.2,704.2 		"/>
		
			<linearGradient id="SVGID_00000106115804046153364530000003324435647121273750_" gradientUnits="userSpaceOnUse" x1="775.1026" y1="638.6595" x2="775.1026" y2="706.0638" gradientTransform="matrix(1 0 0 -1 0 1440)">
			<stop  offset="2.131116e-07" style="stop-color:#AA56D1"/>
			<stop  offset="1" style="stop-color:#A850D2"/>
		</linearGradient>
		<path style="fill:url(#SVGID_00000106115804046153364530000003324435647121273750_);" d="M189.4,481.2l186.4,44.4
			c0,0,89.4,39.8,94,41.4s26,16.9,39.8,27.6c13.8,10.7,67.2,30.6,77.2,36.8c10.1,6.1,56,27.9,72.9,33.1c16.9,5.2,35.2,4.7,52.1,7.2
			c16.9,2.6,53.6,3.2,53.6,3.2s72.5,19.2,88.3,34.6s22,21.4,63.3,46c41.4,24.5,70.5,35.2,91.9,39.8c21.4,4.6,50.6,10.7,78.1,21.4
			c27.6,10.7,59.7,10.3,73.5,22s56.9,27,74.8,46.9s169.3,136.5,166.3,135c-3-1.6-1251.5-114.7-1253-123.6S189.4,481.2,189.4,481.2z"
			/>
		
			<linearGradient id="SVGID_00000137100331683080884620000010780230143840977799_" gradientUnits="userSpaceOnUse" x1="1980.8843" y1="651.705" x2="1980.8843" y2="454.6021" gradientTransform="matrix(1 0 0 -1 0 1440)">
			<stop  offset="2.131116e-07" style="stop-color:#8E20CA"/>
			<stop  offset="1" style="stop-color:#A73EE7"/>
		</linearGradient>
		<path style="fill:url(#SVGID_00000137100331683080884620000010780230143840977799_);" d="M2616,804.4
			c-13.2,14-0.8,87.5,10.1,154.3c9.4,57.3,17.6,109.6,7.7,115.4c-21.5,12.4-1114.7-15.3-1166.8-26c-52.1-10.7-239-125.6-231.3-136.7
			c7.7-11.1,104.2-8.8,119.5-8.8s248.7,54.7,290,34.7c41.4-19.9,99.6,19.9,136.4,0s175.6-123.6,201.7-137.4
			c26-13.8,98-32.2,119.5-47.5c21.4-15.3,73.5-36.8,98-56.7s104.2-24.5,130.2-39.8c26.1-15.3,87.3-46,101.1-59.8
			c4.1-4.1,17-9.3,34.2-15.1c40.8-13.8,105.9-31.1,136.4-46.2c43.4-21.5,123.6-42.9,123.6-42.9s-18.4,124.1-18.4,128.7
			S2640.5,778.4,2616,804.4z"/>
		
			<linearGradient id="SVGID_00000111150021340083135130000005934320015391886750_" gradientUnits="userSpaceOnUse" x1="2078.0999" y1="687.8183" x2="2078.0999" y2="773.942" gradientTransform="matrix(1 0 0 -1 0 1440)">
			<stop  offset="2.131116e-07" style="stop-color:#8E20CA"/>
			<stop  offset="1" style="stop-color:#A73EE7"/>
		</linearGradient>
		<polygon style="fill:url(#SVGID_00000111150021340083135130000005934320015391886750_);" points="2041.2,690.6 2041.2,581.6 
			2047.9,573.3 2047.9,362.9 2053,372.1 2053,428.2 2060.7,442 2060.7,741.9 2078.7,741.9 2078.7,677.9 2089.6,677.9 2111.7,717.6 
			2165.5,730.2 2044.6,803.2 1990.7,795.8 		"/>
		
			<linearGradient id="SVGID_00000051364604037437534930000003117865306207618721_" gradientUnits="userSpaceOnUse" x1="2167.45" y1="669.9905" x2="2167.45" y2="297.5352" gradientTransform="matrix(1 0 0 -1 0 1440)">
			<stop  offset="2.131116e-07" style="stop-color:#8E20CA"/>
			<stop  offset="1" style="stop-color:#A73EE7"/>
		</linearGradient>
		<path style="opacity:0.15;fill:url(#SVGID_00000051364604037437534930000003117865306207618721_);enable-background:new    ;" d="
			M2616,804.4c-13.2,14-0.8,87.5,10.1,154.3c-39,36.6-66.1,61.9-66.1,61.9l-951.5-17.5l138.9-40.4c0,0,96-71.5,104.2-77.6
			s153.2-18.4,153.2-18.4s138.9-61.3,149.1-65.4c10.2-4.1,43.1-17.4,43.1-17.4l32.5,17.4c0,0,102.1-81.7,106.2-86
			c4.1-4.2,61.3-51,61.3-51l53.5-57.1l15.9-26.3c40.8-13.8,105.9-31.1,136.4-46.2c43.4-21.5,123.6-42.9,123.6-42.9
			S2708,615.9,2708,620.5C2707.9,625.2,2640.5,778.4,2616,804.4z"/>
		
			<linearGradient id="SVGID_00000142898175998985726130000002284407854597422212_" gradientUnits="userSpaceOnUse" x1="1001.6373" y1="497.7234" x2="1001.6373" y2="634.9218" gradientTransform="matrix(1 0 0 -1 0 1440)">
			<stop  offset="2.131116e-07" style="stop-color:#8E20CA"/>
			<stop  offset="1" style="stop-color:#700C99"/>
		</linearGradient>
		<path style="fill:url(#SVGID_00000142898175998985726130000002284407854597422212_);" d="M387.6,807.9c11.2,0,178.7-9.6,178.7-9.6
			l30.6-15.3c0,0,42.9,6.6,55.1,12.5c12.3,5.9,42.9,3.3,58.2,0s29.1-2.8,47.5,0s50.5,6.3,64.3,0s39.8-10.9,46-12.5
			c6.1-1.5,95,68.9,99.6,72s24.5,10.8,41.4,17.7c16.9,6.9,102.6,6.8,102.6,6.8s30.6-129.2,35.2-137.4c4.6-8.2,39.8-97,39.8-97
			s-4.6,84.3,0,91.9c4.6,7.7,16.9,35.2,23,46c6.1,10.7,16.9,26,16.9,30.6s-1.5,24.5,0,30.6s44.1,18.4,53.5,35.2s30.8,41.4,43,50.6
			c12.3,9.2,88.9,38.1,101.1,46.6c12.3,8.5,62.8,37.6,81.2,48.3c18.4,10.7,108.8,52.1,110.3,59.7c1.5,7.7-19.9,93.4-38.3,99.6
			c-18.4,6.1-1156.6-61.3-1150.5-75.1S387.6,807.9,387.6,807.9z"/>
		
			<linearGradient id="SVGID_00000110437209946608457460000008870575546560730034_" gradientUnits="userSpaceOnUse" x1="2144.2532" y1="474.7447" x2="2144.2532" y2="595.921" gradientTransform="matrix(1 0 0 -1 0 1440)">
			<stop  offset="2.131116e-07" style="stop-color:#8E20CA"/>
			<stop  offset="1" style="stop-color:#700C99"/>
		</linearGradient>
		<path style="fill:url(#SVGID_00000110437209946608457460000008870575546560730034_);" d="M1727.5,977.5
			c16.9-15.3,79.7-70.5,99.6-68.9c19.9,1.5,46-12.3,59.7-15.3s27.6-26,50.6-26s68.9,10.7,84.3,10.7c15.3,0-1.5-4.6,24.5-10.7
			c26-6.1,32.2-18.4,52.1-21.4c19.9-3.1,30.6-3.1,49-13.8s29.1-15.3,29.1-15.3s56.7,36.8,61.3,38.3s6.1,1.5,41.4,3.1
			c35.2,1.5,56.7,7.7,85.8,9.2s46-7.7,105.7-9.2s81.1-3.1,89.6,39.1c8.5,42.1-52.8,164.7-62,167.7s-378.4,9.2-378.4,9.2l-392.2-27.6
			v-69.1H1727.5z"/>
		
			<linearGradient id="SVGID_00000167354941164378199330000008766688817941858963_" gradientUnits="userSpaceOnUse" x1="-326.8" y1="1023.95" x2="-182.8" y2="1023.95" gradientTransform="matrix(1 0 0 -1 0 1440)">
			<stop  offset="1.843568e-02" style="stop-color:#CB55EF"/>
			<stop  offset="1" style="stop-color:#B459DC"/>
		</linearGradient>
		
			<rect x="-326.8" y="363.2" style="fill:url(#SVGID_00000167354941164378199330000008766688817941858963_);stroke:#090909;stroke-miterlimit:10;" width="144" height="105.7"/>
		<path class="st4" d="M1027.7,34.3c-2,6.8-23.6,14.4-31.4,17.2c-16.2,5.9-34.6,8.8-51.8,12.9c-4.1,1-13.8,2.6-15.4,5.5
			c12.3-0.4,26.1-4.1,38.1-6.3c25.9-4.7,52.5-8,78.2-13.4c-3.3,2.5-9.9,4-14.4,5.1c-27.8,6.6-58.2,10.5-86.7,14.9
			c-59.6,9.2-119.3,20.9-179.4,27c11.5-1.3,23.2-1.4,34.7-2.4c21.7-1.8,43-4.5,64.5-7.9c10.9-1.7,24.1-2.5,34.6-5.3
			c-11.8,1.9-24.4,5.3-36.3,7.7c-39,7.6-79.7,11.9-119.3,17.1c-50.3,6.5-100.6,16.9-151.2,21.3c11.7-1.1,23.3-0.9,35.1-1.4
			c64-2.8,127.8-9.3,191.3-17.8C886.8,99.4,956.1,90,1023.8,78c17.8-3.1,36.5-3.8,54.1-7.3C1026.8,85,969.7,88.5,916,94.2
			c-47.5,5.1-95,8.5-142.6,12.9c-8.3,0.8-25.6,0.6-33.6,3.6c11.2-0.6,22.7-2.4,33.8-3.7c54.5-6.1,110.1-13.5,163.7-23.5
			c43.3-8,86-17.9,128.1-28.9c17.1-4.5,35-9.8,52.8-12.8c-18.9,11.2-40.9,17.7-65.3,22.6c-54,10.8-110.5,14.9-165.4,22
			c25.2-2.4,51.4-8.1,76.1-12.7c58.2-10.8,115-22.9,172.1-36.5c34.8-8.3,77.4-15.6,108.2-30.5c9.8-4.8,18.8-10.6,22-17.6
			c-3.3,3.5-10.4,5.9-15.6,8.2c-14.3,6.2-29.9,11.1-45.4,15.5c-17.6,5-35.7,9-53.1,14.3c-7.2,2.2-15.8,4.2-22.1,7.4
			c5.1-0.9,10-3.9,14.3-5.9c30.4-14,60.9-27.8,91.4-41.7c54.9-25,102.2-54.8,151.2-84.4c11.8-7.2,23.9-14.1,35.3-21.6
			c3.9-2.6,9.1-5.5,11.7-8.7c-7.6,3.2-14.6,7.6-21.8,11.3c-24.9,12.7-47.7,26.6-71.4,40.1c-51.7,29.6-110.2,50.1-171.1,69.6
			c-30.3,9.7-60.5,18.6-91.9,26.4c-14.6,3.6-28.9,7.1-42.9,11.7c4.8-1.5,9.1-3.9,13.4-5.9c12.7-5.9,25.6-11.2,39.3-15.9
			c29.2-9.9,61.1-16,89.9-26.1c-5.9,2.9-8.6,7.8-13.5,11.3c-9.9,7.3-23.2,13.9-35.2,19.6c-14.7,7-30.9,12.3-47.3,17
			c-5.1,1.5-10.2,2.1-15.5,3.2c-7.4,1.5-15.1,4.7-22.4,5.8c6.2-2.7,10.1-8.7,14.9-12.3c4.5-3.3,10.7-6.2,14.1-10
			c-11.2,4.7-19.7,11.4-32.7,14.2C1036,33.3,1031.6,34.1,1027.7,34.3z"/>
	</g>
	<g id="Layer_3" style="clip-path:url(#SVGID_00000156589723944704585330000015352701587419291014_);">
		
			<linearGradient id="SVGID_00000015341318047898852220000012240144059042484407_" gradientUnits="userSpaceOnUse" x1="858.4" y1="284.7872" x2="858.4001" y2="461.064" gradientTransform="matrix(1 0 0 -1 0 1440)">
			<stop  offset="2.131116e-07" style="stop-color:#790096"/>
			<stop  offset="1" style="stop-color:#3A1342"/>
		</linearGradient>
		<path style="fill:url(#SVGID_00000015341318047898852220000012240144059042484407_);" d="M1407.3,1181.3c0,0-41.9,62.3-73.5,68.4
			c-31.7,6.1-1003.9-56.6-1003.9-56.6s-20.4-339.6-20.4-342.7c0-3.1,52.9-133,52.9-133l67.6,27.8l53,37.8l5.1-40.8l21.4,56.2
			c0,0,5.4,4.4,12.4,10.3c10,8.5,23.2,20,27.8,25.4c1.1,1.3,2.5,2.9,4.1,4.6l0,0c9.2,10.3,24.1,26,24.1,26l39.8,32.3
			c0,0,26.6,40.2,32.7,46.3c6.1,6.1,66.5,28.2,67.4,28.6l0,0l27.6-25.5l0,0c1.3,0.8,68.4,43.9,71.5,41.9s6.1-43.9,6.1-43.9
			l13.3-14.3l17.4-27.6c0,0,39.8,18.4,50,30.6c10.2,12.2,56.2,33,64.3,43.6c1.8,2.4,4.2,4.2,6.8,5.7l0,0c9.1,5.2,20.7,5.9,20.7,5.9
			l54.1,31.6c0,0,31.7,5.1,39.8,15.3c8.2,10.2,82.7,40.9,82.7,40.9L1407.3,1181.3z"/>
		<path class="st18" d="M1046.4,1054.3c-1.1-0.8-35.8-25.9-42.2-31.3c-6.5-5.4-55.5-17.4-55.5-17.4s-76.6-41.2-77.6-43.6
			c-1-2.4,63.7,19.1,63.7,19.1l-48.3-51.8l-32.7-26.9c0,0,39.8,18.4,50,30.6c10.2,12.2,56.2,33,64.3,43.6c1.8,2.4,4.2,4.2,6.8,5.7
			l0,0l-1,12.6l27.2,14L1046.4,1054.3z"/>
		<path class="st19" d="M586.8,1003.1c-1.2-2.8-41.2-91.2-42.2-95.2c-1-4.1-18.4-58.6-20.1-63.3c-1.7-4.8-29.6-49.4-29.6-49.4
			l-6.8-53.1l21.4,56.2c0,0,5.4,4.4,12.4,10.3c2,9.3,3.5,16.1,3.6,16.9c0.3,2.7,20.4,65.7,20.4,65.7L586.8,1003.1z"/>
		<path class="st19" d="M713.8,1000.5l55.2,35.7c0,0-7.5,5.1-9.2,4.8c-1.7-0.3-23.8-7.8-24.5-8.9c-0.7-1-39.1-7.1-39.1-7.1
			s-59.2-55.2-63-58.2c-3.7-3.1,22.8,47.3,22.5,52.4s-13.3-17-17.7-24.5s-43.2-58.9-43.2-58.9L571.2,897l29.6,25.2l23.1,15
			c0,0,35.1,41.9,36.4,44.3c1.4,2.4-1.7-4.1-12.6-17.7c-10.9-13.6-23.2-34-25.5-38.5c-2.4-4.4-48-38.5-49.4-39.8
			c-1.4-1.4-18.3-45.8-19-46.8c9.2,10.3,24.1,26,24.1,26l39.8,32.3c0,0,26.6,40.2,32.7,46.3c6.1,6.1,66.5,28.2,67.4,28.6l0,0
			c0,0,32.7,20.4,47,31.3c14.3,10.9,15,14.6,15,14.6s-20.8-5.1-30.6-8.8C739.4,1005.3,713.8,1000.5,713.8,1000.5z"/>
		<path class="st18" d="M898.4,1041c0,0-53.8-12.3-57.5-15.3c-3.7-3.1-37.1-32.7-37.1-32.7l-58.2-46.6c1.3,0.8,68.4,43.9,71.5,41.9
			c0,0,73.5,44.6,78.3,49.4C900.1,1042.4,898.4,1041,898.4,1041z"/>
		
			<linearGradient id="SVGID_00000117649736202646371460000010047093532127712692_" gradientUnits="userSpaceOnUse" x1="1363.3999" y1="25.8937" x2="1363.3999" y2="836.6097" gradientTransform="matrix(1 0 0 -1 0 1440)">
			<stop  offset="9.497275e-03" style="stop-color:#790096"/>
			<stop  offset="0.3698" style="stop-color:#AB32DA"/>
			<stop  offset="0.7095" style="stop-color:#CB55EF;stop-opacity:0"/>
			<stop  offset="1" style="stop-color:#DE60F0;stop-opacity:0"/>
		</linearGradient>
		
			<rect x="-182.8" y="382.2" style="fill:url(#SVGID_00000117649736202646371460000010047093532127712692_);" width="3092.4" height="1183.1"/>
		<path class="st21" d="M1009,1286.4c0,0-242,89.9-244.1,93.9c-2,4.1-854.8-32.7-854.8-32.7s1-1238.8,0-1247
			c-1-8.2,50-151.1,58.2-152.2c8.2-1,102.1,0,102.1,0l31.7,230.8l9.2,14.3l5.1-48l14.3,48L147,216l1.7,10l19.8,116.6l10.5,20.1l0,0
			l0.7,1.3l16.3,89.9l17.2,10.7l0,0l28.8,17.9l40.8,15.3l23.5,89.9l21.5,80.7l14.3-12.2l20.2,15.3L384,688c0,0,22.5,138.9,28.6,144
			s70.5,65.4,81.7,76.6c11.2,11.2,33.7,32.7,44.9,59.2s48,92.9,67.4,107.2s71.5,37.8,71.5,37.8s25.5-14.3,29.6-12.3
			s27.6,24.5,27.6,24.5l41.7-3.8l3.3-0.3c0,0,34.7,31.7,44.9,37.8c0.2,0.1,0.4,0.2,0.6,0.4l0,0c10.9,6.5,44.3,24.1,44.3,24.1
			S881,1191,894,1200c12.6,8.7,27.3,18.7,36.3,24.2c10.4,6.4,34.4,25.6,53.1,41C997.7,1276.9,1009,1286.4,1009,1286.4z"/>
		<polygon class="st22" points="147,216.1 148.7,226.2 148.7,299.5 137.2,221.9 125.3,185.5 116.4,145.7 130.7,193.7 		"/>
		<path class="st22" d="M179.7,364.2l16.3,89.9l-8.2,12.2c0,0-12.9-80-14-83.4c-1-3.4,5.1-20.1,5.1-20.1L179.7,364.2z"/>
		<path class="st22" d="M232.5,674.9c0.2,1.7,0.4,2.9,0.4,3.6C232.8,679.4,232.7,678,232.5,674.9z"/>
		<path class="st23" d="M375.8,976.7l-31.3-73.5l-30.6-63.7l26.2,41.2C339.8,879,317,767.3,317,763.3c0-4.1-11.9-49.4-14.3-56.5
			c-2.4-7.2-16.7-25.2-16.7-25.2s-5.1,60.6-5.1,61.6s-3.7-40.9-4.4-42.9c-0.7-2-8.2-52.8-8.9-54.5c-0.7-1.7-9.2-17-9.9-18.4
			c-0.7-1.4-15-43.2-15-43.2l-17.4-24.5c0,0,5.6,94.5,7.1,115.1c-2.3-16.4-14.4-74.6-16-77.3c-1.7-3.1,0-67.8,0-67.8l-4.1-43.9
			L196,454.1l17.2,10.7l0,0l22,83.6l30.6,72.5l-2.7-13.6l5.8-26.9l19.4,73.9l22.1,43.6l31.3,174.6L375.8,976.7z"/>
		<polygon class="st22" points="67.7,41.2 81.7,154.9 101.8,257.7 75.2,41.2 67.7,19.4 		"/>
		<path class="st24" d="M84.7,347.9c-1.8,3.8,17,121,17,121l21,26.8l27.6,35.2l11.5,111.8l27.6,43.7l-22.2-52.9
			c0,0-11.5-114.9-13.8-116.4s-29.1-62.8-29.1-60.5s16.9,52.1,16.9,52.1s-28.3-44.4-29.1-49.8C111.3,453.6,84.7,347.9,84.7,347.9z"
			/>
		<path class="st25" d="M678.1,1112.8l-13,9.5l-121.8-85L511.9,953L407.2,848.8l-31.4-151.7c0,0,13.5,128.7,14.3,133.5
			s17.1,35,17.1,35s10.4,41.4,12.7,55.9c2.3,14.3,31.2,66.5,32.2,68.1c-1-1.3-26.8-34.5-28.3-38.3s-20.7-51.3-21.5-54.4
			c-0.8-3.1-12.2-19.1-12.2-19.1l-27.8-206.3L384,688c0,0,22.5,138.9,28.6,144s70.5,65.4,81.7,76.6c11.2,11.2,33.7,32.7,44.9,59.2
			s48,92.9,67.4,107.2C626,1089.3,678.1,1112.8,678.1,1112.8z"/>
		<path class="st26" d="M983.5,1265.1c-30-1.9-65.8-4.2-67.1-4.2c-2.3,0-19.2-13.8-29.1-23.7c-10-10-44.4-22.2-44.4-22.2
			s-29.9-29.9-32.9-35.2c-3-5.2,30.9,19.2,32.8,20.6c-1.9-1.7-35.2-31.4-38.2-34.4c-3.1-3.1-27.5-44.6-27.5-44.6l3.3-0.3
			c0,0,34.7,31.7,44.9,37.8c0.2,0.1,0.4,0.2,0.6,0.4l0,0c2.2,4.2,3.7,7.1,4,8.3c1.9,7.1,28.3,17.6,28.3,17.6s41.4,31.8,51.4,41.8
			c-3.3-5.2-9.9-16.5-15.5-26.9c12.6,8.7,27.3,18.7,36.3,24.2C940.8,1230.5,964.7,1249.7,983.5,1265.1z"/>
		<path class="st25" d="M463.6,1025l22.2,54.4c0,0,8.4,10.7,11.5,19.1s35.2,38.3,38.3,39.1c3.1,0.8,60.5,91.9,60.5,91.9l-50.6-98.8
			l68.2,36.8l22.2,9.6l-91.1-59.4c0,0-18.4-21.4-18.4-17.6s8.4,27.2,8.4,27.2l-36.8-41l-19.1-50.6L463.6,1025z"/>
		<path class="st27" d="M354.5,1000.5c3.4,3.8,21.3,72.8,21.3,72.8s-27.8-29.1-25.5-26s29.1,52.9,29.9,55.1s-30-22.2-30-22.2
			s39.2,40.6,40.7,47.1s37.5,102.3,37.5,102.3s41.4,61.3,41.4,59s-41.4-108-42.9-111.4s-16.9-45.6-16.9-42.5s-1.5,19.9-1.5,19.9
			l-17.6-58.2c0,0-7.7-41.4-7.7-43.7s-41.4-96.5-41.4-96.5L354.5,1000.5z"/>
		<path class="st28" d="M-29.6,517.2l71.2,338.6l7.7,174.6l41.4,84.3c0,0-19.9-211.4-19.9-217.5S44.8,744,44.8,744
			s71.4,241.3,71.7,247.4c0.3,6.1,7.2,108.8,12.6,118.7c5.4,10,96.5,186.1,96.5,186.1l-43.7-250.5c0,0-47.5-65.1-48.3-75.1
			s-23.7-106.5-23.7-106.5l-6.1-121c0,0,32.3,69.7,33.4,77.4s17.2,121,24.8,135.6c7.7,14.6,32.2,55.1,38.3,68.9s33.7,73.8,33.7,68.3
			s-65.9-151-65.9-151s-7.7-61.6-8.4-61.8c-0.8-0.2-9.2-73-9.2-73s34.5,68.9,39.1,80.4c4.6,11.5,34.5,147.1,36,149.4
			c1.5,2.3,42.9,56.7,47.5,68.9c4.6,12.3,37.5,131,40.6,134c3.1,3.1,89.6,54.4,93.4,61.3s62,30.6,63.6,33.7s39.1,13,39.1,13
			S371,1214.2,371,1211.9c0-2.3-85.8-118.6-85.8-118.6l-19.9-68.3c0,0-18.4-76.6-19.2-79.7c-0.7-3.1,12.3,92.7,12.3,92.7L240,976.7
			c0,0-21.4-33.6-21.4-36.7c0-3.1-29.1-132.5-29.1-132.5s-30.6-19.9-30.6-24.5s-10.7-90.4-10.7-90.4l-16.9-128.7l-53.6-53.6
			c0,0-39.1-167-39.1-171.6S9.5,116.6,5.7,110.4s-25.3-30.6-29.1-22.2s-19.1,149.4-19.1,158.6C-42.6,256-29.6,517.2-29.6,517.2z"/>
		<path class="st24" d="M58.4,382.4c0.8,13.8,15.7,124.5,19.1,127.9c3.4,3.4,24.2,49.8,24.2,49.8l25.6,94.2l-14.6-95.7l24.2,68.9
			L158.8,783V678.8L137,526.4L92.9,498L58.4,382.4z"/>
		
			<linearGradient id="SVGID_00000103228889188187202200000004782610273532487593_" gradientUnits="userSpaceOnUse" x1="-417.2" y1="766.25" x2="-238" y2="766.25" gradientTransform="matrix(1 0 0 -1 0 1440)">
			<stop  offset="2.131116e-07" style="stop-color:#790096"/>
			<stop  offset="1" style="stop-color:#3A1342"/>
		</linearGradient>
		
			<rect x="-417.2" y="605.3" style="fill:url(#SVGID_00000103228889188187202200000004782610273532487593_);stroke:#090909;stroke-miterlimit:10;" width="179.2" height="136.9"/>
		<path d="M702.9,720.6c-0.7,0-2.1,0.4-2.3,1.2c-0.2,0.9,1,0.9,1.6,0.9c0.7,0,2.1-0.4,2.3-1.2S703.5,720.6,702.9,720.6z"/>
	</g>
	
		<g id="Layer_2_00000158028632525823449880000000205369869589103246_" style="clip-path:url(#SVGID_00000156589723944704585330000015352701587419291014_);">
		<path class="st30" d="M2909.6,1679.6l-3325.3,192L0,1082h38.5l35.9-15.1l37.7,15.1v-15.1H89.5l-33.4-37.7l-21.3-35.8l9.4-28.3
			l11.9-43.4v-26.4L42.3,865L31,816l17-22.6l18.9-18.9l-10.8-34V720l-32.6-28.5L0,640.5l38.3,53.6l13.3,10.7l-3.1-24.5l-15.8-30.1
			L20.9,619l-2.5-34.7l17.9,48.5L52.1,664l4-65.4l10.8-24.5l-10.8,91.4l6.2,30.6l8.2,38.8l12.8,31.2l-1.7,11.7l-0.3,2.1l-12.1,17.4
			l-9.9,14.3l-10.7,8.2L63.9,876L75,855.5l7.7-19.9L72,820.2l19.9,15.3l-1,12.3l29.6-12.8l3.6,6.1l-11.9,9.2l-19.7,10.2l-6.6,15.8
			L73,915.2l-11,48l-7.9,27.5l0,0l35.7,33.2l31.2,8.2l31.2,12.8l5.1,61.3l-8.7,14.3l8.7,20.9l47.8,18.1l0,0l7.4,2.8l35.2,43.9
			l20.4,44.4L311,1289l31.7,16.3l322.3-18.7h0.2l161-9.3l108.3-29.6l11.2-26.6l130.2-23l18.4-16.8l50.6,1l32.7-4.1l37.3-3.6
			l27.1-32.2l27.6-4.1l24.5-12.8l13.3-33.2l34.2-12.8l26.6-5.1l10.7-42.4l85.8-26.5l66.9,3.6l49.5-13.3l25-3.6l17.4-6.6l29.1-17.4
			l158.8-11.2l142.5,3.1l46.5-2l78.1-8.2l17.1-3.5l15.6-3.2l55.7-10.7l40.3-20.4l36.8-5.1l32.7-15.8l26.1-2.5l40.3-5.6l35.7-6.6V853
			l-17.1-30l-3.9-6.8l-38.3-5.1l-4.4,2.4l-17.1,9.4l-22.5,2l-28.1-17.4c0,0-16.3-7.1-20.9-3.6c-4.6,3.6-17.9,1-17.9,1l-13.8-25
			l-2.6-12.2l-20.9-9.7l-33.2-6.1l-1.3-3.9l0,0l-2.2-6.4l18.4,7.1l30.1,5.6l3.7,2.2l14.7,8.6v12.2l3,3.7l0.1,0.1l13.2,16.1l24-11.2
			l5.1-14.3l3.6-12.2l-19.9-13.3c0,0-15.8,5.1-30.6-15.8c-14.8-20.9-14.8-20.9-14.8-20.9l20.4,16.8l-5.1-19.9l-14.3-31.7l4.1-16.3
			l6.6-18.4l-1.5,34.7l9.2,19.4l9.2,25.6l8.7,12.1l2.6,0.5l0.5-23l13.8-4.1l4.1-17.4l-13.8-36.8l15.8-24.5l-7.7,28.1l17.4,25.5
			l-1.5,23l-12.8,8.7l-7.1,15.3l12.8,13.3l14.8,13.8l-1,14.8l2.6,19.9l16.3,3.1l10.7-22.5l-3.1,21.5l13.3,1l20.4-1.5
			c0,0,20.4,2,25.5,5.6s19.9,6.1,19.9,6.1l-13.8-27.6l22.5,28.6l6.6-19.4l18.9-7.7l41.9-19.9l-6.1-15.3l9.7-16.3v-16.8l5-4.7
			l3.7-3.5l13.3-7.1l-14.8,27.2l6.1,23.4l3.1,22.5l-18.9,19.9l-30.1,26.5l-1.2,3.6l-5.9,17.3l25,14.8l7.7-16.3l10.6-21.1l2.7-5.4
			l24.5-18.4l15.3-20.4l4.1-19.4l16.9-37.8l2.6-21.6l1-8l9.7-24.5l-20.4-37.3l5.1-26.6l17.4-19.9l11.2-22.5l23.5-19.9l12.3-9.7
			l-32.2,47.5l35.7-2.1l24.5-20.9l-14.3,22l-48.5,13.3l-11.7,11.2l-8.2,14.3l12.8,34.7l13.3,14.8l-8.7,37.3l-5.6,12.8l38.8-15.8
			l42.4-42.4l4.6,44.9l-65.4,24.5l-17.4,13.3l-9.2,35.2L2523,786l-11.2,15.3l-9.8,13.3l17.4,13.8l28.1,12.3l55.1-14.8l82.2-22
			L2909.6,1679.6z"/>
		<g>
			<path class="st30" d="M1800.6,845c0,0-0.9,11-0.9,11.3s1.7,3.2,5.5,3.3c1.5,0,2.8-0.3,3.8-0.8l-0.1,0.3l-0.9,44.8l3.5,4.5
				l-0.6,3.7l4.4,3.5l-7.9,12.5l-3.2,12.2c0,0,5.8,3.8,7.6,4.7c1.7,0.9,10.2,5.8,10.2,5.8v2.6l2.3,2.3v6.4l1.7,10.2
				c0,0,7.6,0,13.4-2s-2.3-13.7-2.3-13.7l4.7-2c0,0,3.8-3.2,5.8-9.3s3.8-31.1,4.9-34.3c1.2-3.2,7.6-26.2,7.6-26.2V864l13.9,27
				l3.5,17.3l14.8-4.2l8.7-3.5c0,0-5.5-16.3-5.5-17.5s-30.3-64-30.3-64l-2.6-13.8l4.1-18.2l10.8,24.2l12.2,7.6
				c0,0,10.8,5.2,12.8,4.7c2-0.6,6.1,0.3,7,0s3.2-4.9,3.2-5.9s-1-3.2-1-3.2s-2.3-3.1-2.8-3.2c-0.5-0.1-5.3,0.1-6.8,0.3
				s-4.2,2.3-4.2,2.3l-12.1-12.1c0,0-6.2-24.2-6.5-29.8s-2.7-7.9-2.7-7.9l0.6-0.6c0,0-1.3-4.4-3-6.1c-1.7-1.7-16.6-5.7-16.6-5.7
				l-1.4,1.6l-2.6-0.2l-3.3-10.6c0,0,2.8,0.1,5.4-1.8c2.6-1.9,0.2-3.2-0.8-5.8s4.3-3.2,5.9-7.7s-7.1-6.2-7.5-6.6
				c-0.4-0.4,5.5-1.6,2.8-7.7c-2.7-6.1-13.6-3.6-15.6-3.1s0.8,2.4-2.4,2.2c-3.2-0.2-11.1,2.7-13.9,4.5c-2.8,1.7-2.1,10.7-2.5,15.6
				c-0.4,4.9,0,16.9,3.9,17.2s9-1.6,9-1.6s0.2,4.3,0.3,5c0.1,0.8-1.8,3.8-1.8,3.8l-2.3-2.5l0.4-1.3c0,0-13.2,4.6-15.4,6.6
				c-2.2,2-5.1,8.8-5.1,8.8h1.7c0,0-6.7,35.3-6.8,35.7c-0.1,0.4-3.8,22.1-3.8,22.1l-1.2,1.4l-0.9,15.2L1800.6,845z M1808.4,844.9
				c0-0.9,3.9-23.1,4.5-27.3s9.6-31.9,9.6-31.9l0.3,6.1v4.9l-1.7,6.7l-7.3,31.1l-3.4,17.7c-0.4-0.7-0.8-1.4-1-1.9
				C1808.9,848.9,1808.4,845.7,1808.4,844.9z"/>
			<polygon class="st30" points="1899.3,935.6 1910.4,797.6 1912.7,770.8 1915.9,710.9 1908.6,772.6 1904.5,772.3 1903,793.7 
				1896.1,933 			"/>
			<path class="st30" d="M1899.6,901.2l-1.1,9V935l4.1,16.5c0,0,9.4,7.8,5.6,9.3s-15.3-0.8-17.3-3.2c-2.1-2.5-11-49.9-11-49.9
				L1899.6,901.2z"/>
			<polygon class="st31" points="1830.8,753.9 1843.4,771.1 1826.8,754.3 			"/>
			<polygon class="st31" points="1872.7,756.5 1862,772.6 1876.3,761 1876.3,757.4 			"/>
			<polygon class="st31" points="1865.9,790.5 1850.4,802 1863.1,803.1 			"/>
			<path class="st32" d="M1860.3,864.8c0-0.1,0-0.3-0.1-0.4c-0.1-1-0.2-1.6-0.2-1.6"/>
			<path class="st31" d="M1843.4,919.6c0.2-0.7,5.8-22.7,5.8-23.6c0-0.9,1.2-23.9,1.2-23.9s-6.7,32.6-8.7,36.2
				c-2,3.7,6.1,36.8,6.1,36.8l0.3-1.1l4.2-31.1l8-28.3V864l-0.1,0.4l-4,25.2L1843.4,919.6L1843.4,919.6"/>
		</g>
		<polygon class="st31" points="1384.8,1131.2 1241.8,1169 1266.4,1164.9 1487,1133.3 1317.4,1165.9 1247,1189.4 1328.7,1184.3 
			1466.5,1163.9 1375.6,1165.9 1473.7,1148.6 1522.7,1138.4 1725.9,1095.5 1652.4,1115.9 1557.4,1145.5 1674.9,1136.3 
			1576.8,1158.8 1315.4,1204.7 1388.9,1206.8 1338.9,1224.1 1266.4,1224.1 1207.7,1231.9 1104,1245.6 1187.7,1224.1 944.7,1270.1 
			1081.5,1263 591.3,1309.9 892.6,1276.2 665.2,1286.6 826.2,1277.3 934.5,1247.6 945.7,1221.1 1075.9,1198.1 1094.3,1181.3 
			1144.8,1182.3 1177.5,1178.2 1214.8,1174.6 1241.8,1142.4 1310.3,1139.4 1662.6,1071 1624.8,1072 1645.3,1057.7 1570.7,1073 
			1528.8,1072 1409.3,1087.3 1501.3,1064.8 1559.5,1063.8 1621.8,1049.5 1748.4,1020.9 1743.3,1036.2 1752.5,1036.2 1685.1,1053.6 
			1757.6,1044.4 1741.3,1052.6 1760.7,1052.6 1733.1,1069.9 1779,1069.9 1763.7,1079.1 1640.2,1084.2 1560.5,1095.5 		"/>
		<path class="st31" d="M2602.7,825.9c0,0-61.8,38.2-65.6,39.8c-3.8,1.5-86.6,38.3-93.4,39.8c-6.9,1.5-67.4,29.9-75.1,33.7
			c-7.7,3.8-20.7,0.8-20.7,0.8s64.3-20.7,65.1-24.5s8.4-19.9,8.4-19.9l22.2-18.4h-25.3c0,0-61.3,23.7-65.1,23.7s-62.8,13-62.8,13
			l-30.6,29.9l26-3.8l26-16.8l32.2-9.2h41.4c0,0-7.7,3.8-13,6.1c-5.4,2.3-41.4,8.4-45.9,10c-4.6,1.5-49.8,19.9-49.8,19.9l-55.1,10.7
			l-79.7,32.2h42.1c0,0,86.6-29.1,90.4-31.4c3.8-2.3,61.7-11.2,63.5-11.5l-166.9,58.2l60.5-13c0,0,64.3-19.2,66.6-19.9
			c2.3-0.8,90.5-24.9,91.9-25.3l-67.4,35.2l-84.3,25.3l-56.7,16.1l-55.1,13l-128.7,19.1l85.8-24.5l82-29.9l-24.5,6.1l-127.2,10.5
			l26-12.8l114.1-36l-75.1,17.6l-74.3,23.4l-16.1,4.2l-52.8,13.8l-65.9,23l-46.7,4.6l76.6-21.9l-83.5,8.9l24.5-6.1l3.8-8.4
			l-39.8-6.9l32.9-11.1l87.3-19.5l-55.9,9.2l-84.3,6.9l88.1-19.2l18.4-10l-37.5,6.1l-66.6,3.8l66.6-18.4l-102.6,10l-141.7,19.9
			l-147.1,26h26l-53.6,17.6l98-14.5l41.4-3.1l39.1-7.2l145.5-18.9l-162.4,36.9l-87.3,6.8l-130.5,8.4l11-8.4l33.7-13.5h-44.7
			l85.8-26.5l66.9,3.6l49.5-13.3l25-3.6l17.4-6.6l29.1-17.4l158.8-11.2l142.5,3.1l46.5-2l78.1-8.2l17.1-3.5l-99.8,24.9l42.9,5.4
			l42.9-13c0,0-40.6,4.6-48.2,5.4c-7.7,0.8,36.8-6.9,45.2-10s66.6-13,72.8-13.8c6-0.8-32.4,11.1-33.7,11.5
			c1.2-0.2,39.1-5.4,42.9-6.9c3.8-1.5,37.5-8.4,37.5-8.4s32.1-9.2,34.4-9.2c-2.4,0-65.6,0.2-65.6,0.2l40.3-20.4l36.8-5.1l32.7-15.8
			l26.1-2.5l40.3-5.6l35.7-6.6l10.7-0.8l16.9-8.4c13.9-2-13.4-48.8,5.4-51.5l-5.9,17.3l25,14.8l26.8,9.4l15.3-6.9
			c21.6-3.1,29.4,5.9,49,3.1l-21.4-23.7l19.2-1.3l28.1,12.3L2602.7,825.9z"/>
		<path d="M764.9,1461c32.7-10.1,659.7-42.8,733.3-46.9c73.5-4.1,279.8-38.8,304.3-42.9s94-18.4,94-18.4l-547.4,34.7
			c0,0-388.1,38.8-396.3,38.8s-40.9,2,28.6-19.4c69.4-21.4,222.6-39.8,277.8-54.1c36.6-9.5,227.9-39.7,360.8-60.1
			c67.4-10.4,119.8-18.2,129.4-19.6c10.7-1.5,61-13.9,120.9-29.1c100.4-25.5,227.8-59,240.6-62.8c20.4-6.1-688.3,161.4-688.3,161.4
			s337-8.2,345.2-12.3c8.2-4.1,155.2-57.2,200.2-71.5s210.4-51.6,241-63.6s128.7-40.6,145-40.6s30.6,0,30.6,0l-202.2,106.2l377.6-49
			c0,0,49.3-39.8,94.3-46.5c44.9-6.6,94-10.7,94-10.7l-57.2,357.4l-431,108.3c0,0-1252.1,96-1315.4,89.9S338,1602,338,1602
			l-281.9-22.5l-143-73.5v-177.7c0,0,224.7,55.1,245.1,53.1s216.5,10.2,271.7,12.3c55.1,2,83.7,2,69.4,2
			c-14.3,0-418.7,28.6-418.7,28.6s159.3,17.1,224.7,15.7s185.9,21,232.9,21C585.2,1461,764.9,1461,764.9,1461z"/>
		<path class="st33" d="M342.6,1305.3c0,0-13.3-1.5-16.3-1.5c-3.1,0-44.4-31.7-46-36.3c-1.5-4.6-30.1-26-30.1-26s-17.9-24-22.5-29.6
			c-0.3-0.4-0.5-0.6-0.5-0.7c0.5,0.4,22.2,25.7,23,26.7c-0.6-1.2-20.9-38.3-20.9-42.6c0-4.3-11.8-20.7-11.8-20.7s-5.5-6.6-12.5-15
			l7.4,2.8l35.2,43.9l20.4,44.4l43,38.3L342.6,1305.3z"/>
		<path class="st33" d="M160.3,1184.3l33.2,15.3l9.2,30.1c0,0,21.4,26,22,27.6c0.5,1.5,14.3,26.6,16.9,27.6s39.8,20.4,39.8,20.4
			s8.5,13.6,0,4.6s-28.1-12.8-31.1-14.8c-3.1-2-30.6-13.8-30.1-16.9s-8.7-29.6-8.7-29.6l-12.8-11.2l-6.6-22.6c0,0,12.8-6-6.6-10.1
			s-40.3-6.6-41.4-9.4c-1-2.8-25.5-33.4-25.5-33.4s-4.6-9.2,0-5.1s20.9,16.3,20.9,16.3h12.3l15.3,4.1L160.3,1184.3z"/>
		<polygon class="st33" points="63.8,875.9 41.6,824.3 49.3,808.2 69.1,797.3 59.2,811.5 48.5,819.7 		"/>
		<polygon class="st33" points="81.2,779.9 69.1,797.3 81.5,777.8 		"/>
		<path class="st33" d="M86,857.3l38-16.1l-11.9,9.2l-19.7,10.2l-6.6,15.8L73,915.2l-11,48l-7.9,27.5c0.4-2.3,12.8-74.6,14.3-80.6
			C69.9,904,86,857.3,86,857.3z"/>
		<polygon class="st33" points="148.6,1120.5 157.3,1141.4 140.4,1124.4 152.2,1097.8 152.2,1044.9 157.3,1106.2 		"/>
		<path class="st31" d="M2314.9,813.4l-17.1,9.4l-22.5,2l-28.1-17.4c0,0-16.3-7.1-20.9-3.6c-4.6,3.6-17.9,1-17.9,1l-13.8-25
			l-2.6-12.2l-20.9-9.7l-33.2-6.1l-1.3-3.9l50,8.6l14.7,20.3l3,4.2l0.1,0.1l7.1,16.4h33.7l24.5,13h31.4L2314.9,813.4z"/>
		<polygon class="st31" points="2445.2,744.7 2448.2,762.3 2439,769.9 2381.1,784 2400,776.3 2441.9,756.4 2435.7,741.1 
			2445.4,724.7 2445.4,707.9 2450.4,703.2 		"/>
		<path class="st31" d="M2516.4,730.9c-2.3,2.3-14.5,26.8-14.5,26.8h10.7c0,0-13.8,28.3-16.1,29.9c-2.3,1.5-21.4,22.2-22.2,24.5
			s-11.5,4.6-13.8,11.5s-9.2,14.6-9.2,14.6l-13-6.6l10.6-21.1l2.7-5.4l24.5-18.4l15.3-20.4l4.1-19.4l16.9-37.8l2.6-21.6l8.4,25.1
			C2523.3,712.5,2518.7,728.6,2516.4,730.9z"/>
		<circle class="st31" cx="1695.7" cy="930.7" r="44.5"/>
		<ellipse class="st31" cx="1695.7" cy="877.5" rx="29.1" ry="22.8"/>
	</g>
</g>
</svg>
